<?xml version="1.0" encoding="UTF-8"?>
<svg version="1.1" xmlns="http://www.w3.org/2000/svg" width="500" height="500">
<path d="M0 0 C8.89896336 1.45783402 17.60943546 3.5476951 26.34765625 5.74609375 C27.83277262 6.11654726 29.31796846 6.48668232 30.80323792 6.85652161 C38.82927028 8.85836961 46.84766043 10.88956494 54.86279297 12.93457031 C58.11535302 13.76318427 61.36818448 14.59072697 64.62109375 15.41796875 C65.82335098 15.72429419 65.82335098 15.72429419 67.04989624 16.03680801 C76.86101362 18.53176318 86.67480598 20.84683474 96.59765625 22.86328125 C125.05283287 28.80200143 125.05283287 28.80200143 132.45239258 38.9921875 C134.65350088 42.7285278 136.36821446 46.52369004 137.93164062 50.56396484 C138.94631795 52.87759608 139.93116135 54.34645432 141.640625 56.17578125 C144.2927947 59.14819593 145.09296031 61.13422316 146 65 C145.50219727 68.17163086 145.50219727 68.17163086 144.44140625 71.46484375 C143.87208374 73.23746582 143.87208374 73.23746582 143.29125977 75.04589844 C137.98256856 90.01743144 137.98256856 90.01743144 136 92 C134.33382885 92.04063832 132.66611905 92.042721 131 92 C129.32705993 88.54466686 127.66272237 85.08526007 126 81.625 C125.52304688 80.64015625 125.04609375 79.6553125 124.5546875 78.640625 C124.10351562 77.69960937 123.65234375 76.75859375 123.1875 75.7890625 C122.55908203 74.48509521 122.55908203 74.48509521 121.91796875 73.15478516 C121 71 121 71 121 69 C119.83654053 69.39791748 118.67308105 69.79583496 117.47436523 70.20581055 C113.08540353 71.70671694 108.69618035 73.20685743 104.30688477 74.70678711 C102.42074758 75.35144065 100.53467785 75.99629157 98.64868164 76.64135742 C94.12268534 78.18931311 89.59562309 79.73392485 85.06591797 81.27099609 C81.85392501 82.36209207 78.65047319 83.4732841 75.45361328 84.60791016 C74.76469498 84.84838577 74.07577667 85.08886139 73.36598206 85.33662415 C71.54774519 85.97148992 69.73283217 86.61585321 67.91821289 87.26098633 C65.02991631 87.99242394 63.67774083 88.25743061 61 87 C59.296875 84.1640625 59.296875 84.1640625 57.75 80.625 C56.96882813 78.88089844 56.96882813 78.88089844 56.171875 77.1015625 C55 74 55 74 55 71 C65.56 69.35 76.12 67.7 87 66 C73.95922627 66.63606024 73.95922627 66.63606024 60.9375 67.5625 C55.612663 67.9994097 50.34029363 68.10849355 45 68 C43.6589995 65.5664433 42.32705144 63.12864699 41 60.6875 C40.6184375 59.99720703 40.236875 59.30691406 39.84375 58.59570312 C37 53.33984375 37 53.33984375 37 50 C47.89 49.67 58.78 49.34 70 49 C60.2934423 48.71223631 60.2934423 48.71223631 50.58666992 48.43188477 C47.98809888 48.3514605 45.39304684 48.25702099 42.79589844 48.14550781 C40.43072072 48.05484368 38.06316652 48.00526155 35.69628906 48.01855469 C28.9018509 47.87534639 28.9018509 47.87534639 26.42163086 45.46801758 C25.14547433 43.40182263 24.24580837 41.39067789 23.375 39.125 C22.88966797 38.02478516 22.88966797 38.02478516 22.39453125 36.90234375 C21.11776275 33.96951568 20.0117447 31.0352341 19 28 C34.84 29.32 50.68 30.64 67 32 C62.84792969 31.40832031 58.69585937 30.81664062 54.41796875 30.20703125 C51.10778841 29.72254672 47.7983361 29.23359933 44.48926544 28.7416153 C40.99658835 28.22358755 37.50316892 27.71349003 34.0065918 27.22241211 C29.99402754 26.65849676 25.98753505 26.05878074 21.98046875 25.45703125 C20.72727341 25.28597366 19.47407806 25.11491608 18.1829071 24.93867493 C17.02193008 24.75886581 15.86095306 24.5790567 14.66479492 24.39379883 C13.64109299 24.24501785 12.61739105 24.09623688 11.56266785 23.94294739 C7.62613442 22.49447879 6.8048763 19.71292491 5.10864258 16.10302734 C4.33786521 14.19571568 3.56910232 12.28798957 2.8125 10.375 C2.40354492 9.37339844 2.40354492 9.37339844 1.98632812 8.3515625 C0.81512514 5.41621667 0 3.1898006 0 0 Z M76 33 C80 34 80 34 80 34 Z M94 64 C94 64.33 94 64.66 94 65 C95.98 65 97.96 65 100 65 C100 64.67 100 64.34 100 64 C98.02 64 96.04 64 94 64 Z " fill="#F0B722" transform="translate(0,167)"/>
<path d="M0 0 C-0.63704713 4.82656884 -1.95634677 9.21962985 -3.6875 13.75 C-4.03458008 14.75740234 -4.03458008 14.75740234 -4.38867188 15.78515625 C-5.58696172 18.90759297 -6.32076617 20.69450467 -9.43725586 22.09619141 C-14.20961929 23.30686018 -18.99651075 24.02903676 -23.8671875 24.7265625 C-24.90191193 24.87910492 -25.93663635 25.03164734 -27.00271606 25.18881226 C-30.2927528 25.67264758 -33.58383227 26.14892518 -36.875 26.625 C-39.11205228 26.95262618 -41.34903237 27.28074568 -43.5859375 27.609375 C-49.05646832 28.41196657 -54.52787374 29.2083635 -60 30 C-59.25540527 29.94465088 -58.51081055 29.88930176 -57.74365234 29.83227539 C-30.42595656 27.80256257 -30.42595656 27.80256257 -19 27 C-19.61095337 31.45242726 -21.29915793 34.82007403 -23.4375 38.75 C-24.05496094 39.89984375 -24.67242187 41.0496875 -25.30859375 42.234375 C-27 45 -27 45 -29 46 C-31.62380313 46.15660883 -34.22524852 46.2582908 -36.8515625 46.31640625 C-37.62559418 46.33718735 -38.39962585 46.35796844 -39.19711304 46.37937927 C-41.67298392 46.44483448 -44.14896202 46.50374087 -46.625 46.5625 C-48.30209448 46.60568907 -49.97917807 46.64930348 -51.65625 46.69335938 C-55.77072498 46.80131342 -59.88527977 46.90041614 -64 47 C-54.43 47.33 -44.86 47.66 -35 48 C-38 54 -41 60 -44 66 C-58.19 65.01 -72.38 64.02 -87 63 C-76.55940044 64.60414058 -76.55940044 64.60414058 -66.11767578 66.20092773 C-64.8232959 66.40145752 -63.52891602 66.6019873 -62.1953125 66.80859375 C-61.17425415 66.96285828 -61.17425415 66.96285828 -60.13256836 67.12023926 C-55.2281436 67.8859282 -55.2281436 67.8859282 -53 69 C-54.6466667 74.68848498 -57.30333437 79.75850936 -60 85 C-67.52249967 83.01129845 -74.94933757 80.80953626 -82.35546875 78.42578125 C-83.38311844 78.09708542 -84.41076813 77.76838959 -85.46955872 77.42973328 C-88.70958181 76.39285491 -91.94855376 75.3527367 -95.1875 74.3125 C-97.40162363 73.60329992 -99.61581573 72.89431358 -101.83007812 72.18554688 C-107.22084532 70.45949879 -112.6107564 68.73079896 -118 67 C-118.28536621 67.89219238 -118.57073242 68.78438477 -118.86474609 69.70361328 C-119.82720666 72.4982676 -120.88863453 75.08200916 -122.1640625 77.7421875 C-122.76347656 78.99902344 -122.76347656 78.99902344 -123.375 80.28125 C-123.7875 81.1371875 -124.2 81.993125 -124.625 82.875 C-125.04523438 83.75414062 -125.46546875 84.63328125 -125.8984375 85.5390625 C-126.9291692 87.69422878 -127.96309426 89.84779922 -129 92 C-132 91 -132 91 -133.35375977 88.49072266 C-134.54521574 85.52763103 -135.71618175 82.55977344 -136.82836914 79.56591797 C-137.55317001 77.64966691 -138.3343484 75.76340576 -139.11914062 73.87109375 C-142.50802807 64.7990086 -142.50802807 64.7990086 -141.13696289 59.94384766 C-139.61306262 57.10381796 -137.91892645 54.58711727 -136 52 C-135.02960661 50.4660655 -134.06687977 48.92724387 -133.11328125 47.3828125 C-132.18382213 45.96083053 -131.25028065 44.54150783 -130.3125 43.125 C-129.37036166 41.69058474 -128.42893581 40.25570122 -127.48828125 38.8203125 C-126.87786987 37.89629639 -126.87786987 37.89629639 -126.25512695 36.95361328 C-124.91278125 34.97732514 -124.91278125 34.97732514 -123.92158508 32.53536987 C-121.24162048 28.99938201 -118.13437527 28.45119413 -113.99951172 27.48046875 C-113.20068007 27.27640915 -112.40184841 27.07234955 -111.57880974 26.86210632 C-109.05681071 26.22263846 -106.52911579 25.61063322 -104 25 C-102.45189825 24.61191315 -100.904217 24.22214442 -99.35699463 23.83056641 C-94.5808029 22.62916439 -89.79488494 21.46963942 -85.0078125 20.3125 C-83.24292436 19.88349401 -81.47810452 19.45420692 -79.71334839 19.0246582 C-75.11542056 17.90619389 -70.51668494 16.79109005 -65.91772461 15.67687988 C-59.46379816 14.11262504 -53.01098344 12.54378957 -46.55807495 10.9753418 C-43.1411609 10.14482684 -39.72393724 9.31560685 -36.306427 8.48754883 C-34.70832615 8.09988561 -33.11025241 7.71211057 -31.51220703 7.32421875 C-30.35708964 7.04403648 -30.35708964 7.04403648 -29.17863655 6.75819397 C-24.92229218 5.72244909 -20.67104115 4.66856011 -16.42376709 3.59619141 C-15.50456923 3.36438675 -14.58537136 3.13258209 -13.63831902 2.89375305 C-11.86058339 2.44441914 -10.08337458 1.99299448 -8.3067646 1.53923035 C-7.51031469 1.33783951 -6.71386478 1.13644867 -5.89328003 0.92895508 C-4.83601117 0.65949821 -4.83601117 0.65949821 -3.75738335 0.38459778 C-2 0 -2 0 0 0 Z M-74 31 C-74 31.33 -74 31.66 -74 32 C-71.69 32 -69.38 32 -67 32 C-67 31.67 -67 31.34 -67 31 C-69.31 31 -71.62 31 -74 31 Z " fill="#F0B722" transform="translate(500,167)"/>
<path d="M0 0 C0.76645844 0.00060425 1.53291687 0.0012085 2.32260132 0.00183105 C34.97390197 0.07136957 78.16112969 1.38638609 103.31640625 25.203125 C108.91090224 31.34136251 110.36198139 37.03918586 110.125 45.1875 C109.68511994 47.61670085 109.17065854 50.03324215 108.59375 52.43359375 C108.43837769 53.08957047 108.28300537 53.74554718 108.1229248 54.42140198 C107.63094157 56.49110058 107.12818177 58.55799875 106.625 60.625 C106.28704084 62.03823957 105.9497945 63.45164981 105.61328125 64.86523438 C104.7920792 68.30799973 103.96119975 71.7483426 103.125 75.1875 C98.25944547 74.51220951 93.8072099 73.62082956 89.125 72.1875 C89.37203262 70.77031288 89.62301751 69.35381538 89.875 67.9375 C90.04902344 66.94878906 90.22304688 65.96007812 90.40234375 64.94140625 C90.96616133 62.0126025 91.58715568 59.12055918 92.25390625 56.21484375 C92.44823242 55.33666992 92.64255859 54.45849609 92.84277344 53.55371094 C93.23459061 51.78892524 93.6424367 50.02761056 94.06738281 48.27050781 C94.96891378 44.127336 95.3572545 41.85162644 93.9296875 37.76953125 C84.59668612 24.41647084 64.07240604 21.92850439 49.2578125 19.21875 C41.24130973 17.83104009 33.2351086 16.81642414 25.125 16.1875 C24.40908691 16.13110352 23.69317383 16.07470703 22.95556641 16.01660156 C-11.2659393 13.43298107 -59.4598339 12.34071562 -88.875 33.1875 C-91.23464753 35.35116351 -92.65885616 36.92684543 -93.20874023 40.1340332 C-93.45521469 47.2235204 -91.40163278 53.85686784 -89.56445312 60.63476562 C-87.33098304 69.29811296 -87.33098304 69.29811296 -88.875 74.1875 C-91.54269884 77.28779866 -94.44951806 79.94321873 -97.875 82.1875 C-98.535 82.1875 -99.195 82.1875 -99.875 82.1875 C-102.38577948 73.30859826 -104.62065925 64.36717492 -106.6875 55.375 C-106.91848389 54.42165771 -107.14946777 53.46831543 -107.38745117 52.48608398 C-109.00137806 45.29042619 -109.59177872 38.50795419 -106.81640625 31.5234375 C-94.39851903 13.86400582 -73.03360278 8.26857001 -52.875 4.1875 C-45.24902226 2.86530771 -37.578289 1.92226904 -29.875 1.1875 C-28.89289551 1.09251221 -27.91079102 0.99752441 -26.89892578 0.8996582 C-17.93268777 0.11759759 -8.99264815 -0.01316657 0 0 Z " fill="#FFFFFF" transform="translate(247.875,137.8125)"/>
<path d="M0 0 C77.55 0 155.1 0 235 0 C231.06561498 1.96719251 228.76762971 2.42442256 224.46875 2.8515625 C223.18226563 2.98046875 221.89578125 3.109375 220.5703125 3.2421875 C219.56532715 3.3364502 219.56532715 3.3364502 218.54003906 3.43261719 C216.5335051 3.62184035 214.52843809 3.82641693 212.5234375 4.03125 C204.65461766 4.79779507 196.90493021 5.18370612 189 5 C188.9175 5.9075 188.835 6.815 188.75 7.75 C187.69519976 12.32080104 185.37372091 14.10424136 181.50830078 16.62475586 C180.58001465 17.14948486 179.65172852 17.67421387 178.6953125 18.21484375 C177.64811035 18.81192139 176.6009082 19.40899902 175.52197266 20.02416992 C174.40097168 20.65556885 173.2799707 21.28696777 172.125 21.9375 C170.35685104 22.94357966 168.59016845 23.9522007 166.82357788 24.96101379 C165.62542256 25.6451217 164.42687267 26.328539 163.22793579 27.01127625 C157.66163399 30.18312979 152.1371944 33.42276898 146.625 36.6875 C145.74086426 37.20916748 144.85672852 37.73083496 143.94580078 38.26831055 C139.40547101 40.95403953 134.88955234 43.67409844 130.3984375 46.44140625 C129.0379126 47.27442261 129.0379126 47.27442261 127.64990234 48.12426758 C125.93411552 49.17691402 124.22314297 50.23746518 122.51806641 51.30737305 C114.52956932 56.19871659 114.52956932 56.19871659 110 56 C106.66556755 54.68707209 103.64541953 52.94158942 100.5625 51.125 C99.66781006 50.61469238 98.77312012 50.10438477 97.85131836 49.57861328 C95.22249653 48.0715194 92.60874688 46.54153225 90 45 C89.36449219 44.62552734 88.72898437 44.25105469 88.07421875 43.86523438 C85.83199702 42.5379422 83.59638079 41.20007477 81.37084961 39.8449707 C76.92315185 37.13724105 72.4394854 34.49411645 67.94140625 31.87109375 C66.98594658 31.31346344 66.98594658 31.31346344 66.01118469 30.74456787 C63.41345977 29.22886841 60.81558287 27.71346367 58.21463013 26.20330811 C36.12108007 13.37340285 36.12108007 13.37340285 34 8 C34 6.68 34 5.36 34 4 C33.34257812 4.02320313 32.68515625 4.04640625 32.0078125 4.0703125 C25.44387008 4.19483173 19.02018989 3.82015276 12.5 3.125 C11.33428467 3.00729248 11.33428467 3.00729248 10.14501953 2.88720703 C6.19373664 2.4382172 3.61259381 1.80629691 0 0 Z M53 5 C55.68041106 7.68041106 57.71866363 9.13651184 60.9609375 10.9765625 C62.48340088 11.84825073 62.48340088 11.84825073 64.03662109 12.73754883 C66.30144186 14.01803218 68.56743254 15.29644807 70.83447266 16.57299805 C72.03594114 17.25228059 73.23694164 17.93239145 74.4375 18.61328125 C75.3558815 19.13413551 75.3558815 19.13413551 76.29281616 19.66551208 C80.20763432 21.9090726 84.02762389 24.26491095 87.81137085 26.72277832 C90.36258258 28.3778832 92.93518368 29.99810616 95.50909424 31.61761475 C96.74473611 32.40889279 97.96969171 33.21713291 99.18280029 34.0425415 C102.9659197 36.61072645 106.53764236 38.79122133 111 40 C115.68621901 38.98141434 119.09369119 36.70729933 123 34 C124.70693677 33.00936421 126.42028479 32.02967214 128.140625 31.0625 C129.84615546 30.04569062 131.54921951 29.02473468 133.25 28 C135.1453483 26.86767731 137.04120163 25.73619964 138.9375 24.60546875 C139.9171875 24.02071777 140.896875 23.4359668 141.90625 22.83349609 C145.15584514 20.90763913 148.41911913 19.00706964 151.6875 17.11328125 C152.78288086 16.47841797 153.87826172 15.84355469 155.00683594 15.18945312 C157.13902052 13.95546975 159.27245005 12.72363455 161.40722656 11.49414062 C162.37112305 10.93533203 163.33501953 10.37652344 164.328125 9.80078125 C165.1830957 9.30747314 166.03806641 8.81416504 166.91894531 8.3059082 C169.10975263 7.03897657 169.10975263 7.03897657 171 5 C132.06 5 93.12 5 53 5 Z " fill="#FFFFFF" transform="translate(137,306)"/>
<path d="M0 0 C5.88747529 3.0652681 10.99249865 9.05484663 13.703125 15.07421875 C14.765625 19.38671875 14.765625 19.38671875 14.765625 32.38671875 C29.945625 32.38671875 45.125625 32.38671875 60.765625 32.38671875 C45.915625 31.89171875 45.915625 31.89171875 30.765625 31.38671875 C29.09871453 24.71907689 32.75877992 19.19329679 35.86328125 13.3046875 C37.54492448 10.82742811 39.21938514 9.53794287 42.09375 8.7421875 C47.06871398 8.06446037 51.14891269 8.1937804 55.765625 10.38671875 C56.755625 11.37671875 56.755625 11.37671875 57.765625 12.38671875 C61.96579757 13.76209841 66.20293669 13.60828536 70.578125 13.63671875 C71.75084961 13.66765625 71.75084961 13.66765625 72.94726562 13.69921875 C78.38261335 13.73554522 81.86216085 12.6769953 86.765625 10.38671875 C89.19921875 10.09375 89.19921875 10.09375 91.203125 10.19921875 C92.37875 10.26109375 93.554375 10.32296875 94.765625 10.38671875 C96.21195373 15.0149707 95.51622031 18.96705435 93.765625 23.38671875 C89.03675563 31.75115344 89.03675563 31.75115344 85.765625 33.38671875 C88.28537016 34.2266338 90.21737485 34.62078578 92.8203125 34.88671875 C93.60019531 34.96921875 94.38007813 35.05171875 95.18359375 35.13671875 C95.99441406 35.21921875 96.80523437 35.30171875 97.640625 35.38671875 C107.33826651 36.38294517 107.33826651 36.38294517 111.765625 37.38671875 C111.765625 37.71671875 111.765625 38.04671875 111.765625 38.38671875 C34.875625 38.38671875 -42.014375 38.38671875 -121.234375 38.38671875 C-121.234375 38.05671875 -121.234375 37.72671875 -121.234375 37.38671875 C-119.54750369 37.09143774 -117.8598154 36.8008258 -116.171875 36.51171875 C-115.09035156 36.32609375 -114.00882813 36.14046875 -112.89453125 35.94921875 C-110.30910903 35.55188599 -107.7658261 35.21547602 -105.16796875 34.94921875 C-104.4932251 34.87558105 -103.81848145 34.80194336 -103.12329102 34.72607422 C-101.17988818 34.51922397 -99.2344774 34.33151387 -97.2890625 34.14453125 C-94.17367496 33.71153256 -94.17367496 33.71153256 -92.828125 31.52734375 C-91.48777635 26.69503414 -91.66594699 23.40988916 -94.109375 19.01171875 C-95.96540309 16.34878681 -95.96540309 16.34878681 -98.234375 15.38671875 C-102.28579619 15.1281174 -103.77775169 15.08230321 -107.234375 17.38671875 C-108.224375 17.05671875 -109.214375 16.72671875 -110.234375 16.38671875 C-103.5952621 9.56817036 -103.5952621 9.56817036 -98.484375 8.88671875 C-94.09594599 8.99986425 -91.78840796 10.67326524 -88.7109375 13.6875 C-84.64173092 18.37031709 -83.90688061 22.33511448 -84.03125 28.3359375 C-84.234375 30.38671875 -84.234375 30.38671875 -85.234375 33.38671875 C-84.13673828 33.35118896 -83.03910156 33.31565918 -81.90820312 33.27905273 C-77.75590739 33.14666261 -73.60336261 33.02425045 -69.45068359 32.90454102 C-67.66837716 32.85183754 -65.88614391 32.79658471 -64.10400391 32.73852539 C-52.73437484 32.37021346 -41.57663878 32.43123465 -30.234375 33.38671875 C-30.24283447 32.28062256 -30.25129395 31.17452637 -30.26000977 30.03491211 C-30.20655855 22.42804068 -27.51141743 16.66458518 -22.3515625 11.1171875 C-18.74551431 8.16980863 -14.64811429 6.73659475 -10.234375 5.38671875 C-17.09226519 5.60442955 -20.82786804 6.94986309 -26.2890625 11.109375 C-28.234375 12.38671875 -28.234375 12.38671875 -31.234375 12.38671875 C-24.94936629 0.90974632 -12.52935135 -3.43900028 0 0 Z M-19.234375 16.38671875 C-23.24929794 21.97893284 -23.234375 25.38397105 -23.234375 32.38671875 C-14.984375 32.38671875 -6.734375 32.38671875 1.765625 32.38671875 C2.82448986 26.03352962 2.49531463 23.00604077 -0.234375 17.38671875 C-2.47615698 14.68339342 -3.90258861 13.59496171 -7.3828125 13.05078125 C-12.09937729 12.84707579 -15.5277088 13.22515052 -19.234375 16.38671875 Z " fill="#ECECEC" transform="translate(259.234375,224.61328125)"/>
<path d="M0 0 C0.70382812 0.62777344 1.40765625 1.25554687 2.1328125 1.90234375 C2.1328125 2.89234375 2.1328125 3.88234375 2.1328125 4.90234375 C-3.89630573 4.93268328 -9.92297691 4.91650934 -15.9519043 4.85961914 C-17.99711026 4.84658415 -20.04243429 4.84564795 -22.08764648 4.85766602 C-34.72334015 4.9225278 -44.41908671 4.5694482 -54.8671875 -3.09765625 C-54.39740479 -2.65663574 -53.92762207 -2.21561523 -53.44360352 -1.76123047 C-52.32307943 -0.7093099 -51.20255534 0.34261068 -50.08203125 1.39453125 C-43.10620531 6.14350623 -34.94720636 5.09211181 -26.8671875 4.96484375 C-24.07815226 4.94023879 -21.28911526 4.92609571 -18.5 4.9140625 C-17.78723907 4.91053772 -17.07447815 4.90701294 -16.34011841 4.90338135 C47.78984181 4.68484986 47.78984181 4.68484986 61.1328125 13.90234375 C62.5078125 15.90234375 62.5078125 15.90234375 63.1328125 17.90234375 C62.8028125 18.89234375 62.4728125 19.88234375 62.1328125 20.90234375 C61.4728125 20.24234375 60.8128125 19.58234375 60.1328125 18.90234375 C60.3184375 20.20171875 60.5040625 21.50109375 60.6953125 22.83984375 C61.01171875 25.0546875 61.01171875 25.0546875 61.1328125 26.90234375 C58.46516209 29.56999416 50.96684893 28.22068845 47.14233398 28.25244141 C45.68644155 28.26894335 44.23062821 28.29615758 42.77514648 28.33447266 C40.67128673 28.38956633 38.56933016 28.41116622 36.46484375 28.42578125 C35.20389893 28.44560059 33.9429541 28.46541992 32.64379883 28.48583984 C27.40829427 27.61574347 24.83402687 24.94775731 21.453125 20.8828125 C20.34635417 19.22265625 19.23958333 17.5625 18.1328125 15.90234375 C18.4628125 17.88234375 18.7928125 19.86234375 19.1328125 21.90234375 C17.8128125 22.23234375 16.4928125 22.56234375 15.1328125 22.90234375 C14.6996875 21.81953125 14.6996875 21.81953125 14.2578125 20.71484375 C10.59795121 15.87090969 4.79598339 13.79006738 -0.8671875 11.90234375 C-2.42837178 11.8349351 -3.9922127 11.81719919 -5.5546875 11.83984375 C-6.36292969 11.84886719 -7.17117188 11.85789063 -8.00390625 11.8671875 C-8.61878906 11.87878906 -9.23367188 11.89039063 -9.8671875 11.90234375 C-3.55199051 17.84386044 1.43493021 19.85859788 10.1328125 20.90234375 C10.1328125 21.56234375 10.1328125 22.22234375 10.1328125 22.90234375 C6.20068958 24.86840521 1.42864376 24.23185353 -2.8671875 23.90234375 C-9.00031148 21.7793393 -14.28444261 17.27646108 -17.8671875 11.90234375 C-20.51424331 11.64210916 -22.90482967 11.56934389 -25.546875 11.64453125 C-26.31103729 11.65652557 -27.07519958 11.6685199 -27.86251831 11.68087769 C-35.26305729 11.83337828 -42.62232394 12.34664669 -49.9921875 13.02734375 C-51.02638824 13.11938583 -51.02638824 13.11938583 -52.08148193 13.21328735 C-68.16672571 14.65399012 -84.17338192 16.76610774 -100.17626953 18.92041016 C-101.15781006 19.05088242 -102.13935059 19.18135468 -103.15063477 19.31578064 C-104.98882344 19.56062506 -106.82644456 19.80978765 -108.66333008 20.06422424 C-113.78295142 20.74449548 -118.70212971 21.01751209 -123.8671875 20.90234375 C-123.5371875 20.24234375 -123.2071875 19.58234375 -122.8671875 18.90234375 C-120.81347656 18.23217773 -120.81347656 18.23217773 -118.1328125 17.6484375 C-116.68261719 17.32649414 -116.68261719 17.32649414 -115.203125 16.99804688 C-114.18476563 16.78083984 -113.16640625 16.56363281 -112.1171875 16.33984375 C-111.11429688 16.11876953 -110.11140625 15.89769531 -109.078125 15.66992188 C-104.68239884 14.70507747 -100.28184751 13.77663708 -95.8671875 12.90234375 C-95.73441406 12.1546875 -95.60164063 11.40703125 -95.46484375 10.63671875 C-95.28824219 9.651875 -95.11164063 8.66703125 -94.9296875 7.65234375 C-94.75566406 6.6778125 -94.58164063 5.70328125 -94.40234375 4.69921875 C-93.96339021 2.4051258 -93.46370158 0.15942404 -92.8671875 -2.09765625 C-102.6847674 -0.13756966 -102.6847674 -0.13756966 -110.19921875 5.90625 C-111.63764213 8.8705921 -112.86186839 11.76634831 -113.8671875 14.90234375 C-114.5271875 14.90234375 -115.1871875 14.90234375 -115.8671875 14.90234375 C-115.2071875 11.93234375 -114.5471875 8.96234375 -113.8671875 5.90234375 C-117.87646483 7.23876953 -119.35961755 9.92002855 -121.7421875 13.21484375 C-129.14460703 23.43561567 -129.14460703 23.43561567 -134.0546875 24.27734375 C-134.6528125 24.48359375 -135.2509375 24.68984375 -135.8671875 24.90234375 C-136.95604214 27.58048204 -136.95604214 27.58048204 -137.8671875 30.90234375 C-139.12154194 33.61038802 -140.48451967 36.25782373 -141.8671875 38.90234375 C-142.1971875 38.90234375 -142.5271875 38.90234375 -142.8671875 38.90234375 C-143.58226189 32.32365934 -141.50859705 27.38362339 -137.8671875 21.90234375 C-135.81085863 20.12249607 -133.81946313 18.87730553 -131.41015625 17.61328125 C-127.67437316 15.09980507 -125.49193303 11.52652129 -123.05664062 7.81640625 C-116.69266626 -1.12420164 -104.55400403 -3.89449586 -94.66064453 -7.546875 C-92.47328878 -8.35463529 -90.28920178 -9.17078369 -88.10546875 -9.98828125 C-86.70590952 -10.50959902 -85.30617615 -11.03044959 -83.90625 -11.55078125 C-83.25830475 -11.79242004 -82.6103595 -12.03405884 -81.94277954 -12.28302002 C-58.92693952 -20.76268046 -19.86265778 -13.50971894 0 0 Z M-79.359375 -7.75390625 C-83.33013729 -6.95268419 -85.99415739 -6.21229237 -88.546875 -2.953125 C-91.17488117 2.10850818 -92.73248223 7.33197245 -93.8671875 12.90234375 C-86.15447703 11.76598829 -78.49435783 10.5207501 -70.8671875 8.90234375 C-71.5271875 7.91234375 -72.1871875 6.92234375 -72.8671875 5.90234375 C-72.9921875 2.71484375 -72.9921875 2.71484375 -72.8671875 -0.09765625 C-68.4121875 -0.59265625 -68.4121875 -0.59265625 -63.8671875 -1.09765625 C-67.48835952 -6.42506367 -67.48835952 -6.42506367 -73.1171875 -8.72265625 C-75.19417548 -8.37649159 -77.27348606 -8.04161507 -79.359375 -7.75390625 Z " fill="#DFDFDF" transform="translate(287.8671875,205.09765625)"/>
<path d="M0 0 C1.01163423 0.98822881 2.01180206 1.98833562 3 3 C7.22429696 4.33812436 11.42250806 4.2214704 15.8125 4.25 C16.59431641 4.270625 17.37613281 4.29125 18.18164062 4.3125 C23.61698835 4.34882647 27.09653585 3.29027655 32 1 C34.43359375 0.70703125 34.43359375 0.70703125 36.4375 0.8125 C38.2009375 0.9053125 38.2009375 0.9053125 40 1 C41.44471481 5.6230874 40.76044535 9.58715032 39 14 C37.16805039 17.12937812 35.14887813 20.08076933 33 23 C29 22 29 22 27.10258484 21.47094727 C23.57669627 20.68120145 19.98965236 20.90040278 16.39453125 20.9375 C15.55589035 20.94128662 14.71724945 20.94507324 13.85319519 20.94897461 C10.27601046 20.96525464 6.69894144 20.99324371 3.12182617 21.02050781 C0.50440005 21.03874604 -2.11300668 21.0507487 -4.73046875 21.0625 C-5.92158516 21.07494751 -5.92158516 21.07494751 -7.13676453 21.08764648 C-12.50092114 21.1107416 -17.67714346 20.67351918 -23 20 C-23.63413797 13.02448238 -22.00744876 8.72331415 -18 3 C-13.49293804 -2.13922131 -6.24791891 -1.66611171 0 0 Z " fill="#F1F1F1" transform="translate(314,234)"/>
<path d="M0 0 C3.125 0.25 3.125 0.25 4.8125 1.3125 C6.125 3.25 6.125 3.25 7.5625 6.6875 C9.05545273 10.09143222 10.34961528 11.85742696 13.125 14.25 C17.96772992 9.53799511 17.96772992 9.53799511 22.3125 4.375 C24.25469117 2.09794828 25.19659995 1.56375715 28.125 1.25 C28.62 2.24 28.62 2.24 29.125 3.25 C27.17070877 7.48429766 25.03215547 8.92431222 21.125 11.25 C19.31517757 13.16338175 17.74533876 15.16670731 16.125 17.25 C19.89094002 21.58653699 22.68120023 22.7378334 28.125 24.25 C31.125 27.34677419 31.125 27.34677419 31.125 30.25 C28.815 29.92 26.505 29.59 24.125 29.25 C24.47286708 31.22536745 24.47286708 31.22536745 25.125 33.25 C26.115 33.745 26.115 33.745 27.125 34.25 C27.125 34.91 27.125 35.57 27.125 36.25 C23.8125 36.5625 23.8125 36.5625 20.125 36.25 C18.375 34.125 18.375 34.125 17.125 31.25 C15.00288922 26.52907939 15.00288922 26.52907939 11.125 23.25 C8.93975052 25.28454262 7.21002371 27.10582936 5.6875 29.6875 C3.80882494 32.7685271 1.93381786 34.97619506 -0.875 37.25 C-4.32116056 37.16985673 -5.4306104 36.6943896 -7.875 34.25 C-7.38499701 29.58554844 -4.27409553 27.14946944 -0.875 24.25 C0.77105826 23.21642853 2.43463442 22.20939668 4.125 21.25 C5.87649165 19.66754725 5.87649165 19.66754725 7.125 18.25 C4.44612903 15.88629032 2.42959253 14.34746961 -1 13.25 C-4.23355908 12.1252838 -5.21898339 11.19402954 -6.875 8.25 C-6.875 7.59 -6.875 6.93 -6.875 6.25 C-4.895 6.91 -2.915 7.57 -0.875 8.25 C-0.545 6.93 -0.215 5.61 0.125 4.25 C-1.195 3.26 -2.515 2.27 -3.875 1.25 C-2.875 0.25 -2.875 0.25 0 0 Z " fill="#FFFFFF" transform="translate(299.875,172.75)"/>
<path d="M0 0 C-0.804375 0.45375 -1.60875 0.9075 -2.4375 1.375 C-5.08856572 2.74725665 -5.08856572 2.74725665 -6 5 C-5.34 5.33 -4.68 5.66 -4 6 C-4.99 6.33 -5.98 6.66 -7 7 C-8.18324935 9.44008386 -9.18284934 11.7819496 -10.125 14.3125 C-10.38925781 14.98990234 -10.65351563 15.66730469 -10.92578125 16.36523438 C-12.14734408 19.53695716 -13.29803439 22.66994361 -14 26 C-16.31 26 -18.62 26 -21 26 C-21 25.67 -21 25.34 -21 25 C-19.35 24.67 -17.7 24.34 -16 24 C-15.86722656 23.25234375 -15.73445313 22.5046875 -15.59765625 21.734375 C-15.42105469 20.74953125 -15.24445313 19.7646875 -15.0625 18.75 C-14.88847656 17.77546875 -14.71445313 16.8009375 -14.53515625 15.796875 C-14.09620271 13.50278205 -13.59651408 11.25708029 -13 9 C-22.8175799 10.96008659 -22.8175799 10.96008659 -30.33203125 17.00390625 C-31.77045463 19.96824835 -32.99468089 22.86400456 -34 26 C-34.66 26 -35.32 26 -36 26 C-35.34 23.03 -34.68 20.06 -34 17 C-38.00927733 18.33642578 -39.49243005 21.0176848 -41.875 24.3125 C-49.27741953 34.53327192 -49.27741953 34.53327192 -54.1875 35.375 C-54.785625 35.58125 -55.38375 35.7875 -56 36 C-57.08885464 38.67813829 -57.08885464 38.67813829 -58 42 C-59.25435444 44.70804427 -60.61733217 47.35547998 -62 50 C-62.33 50 -62.66 50 -63 50 C-63.71507439 43.42131559 -61.64140955 38.48127964 -58 33 C-55.94367113 31.22015232 -53.95227563 29.97496178 -51.54296875 28.7109375 C-47.80718566 26.19746132 -45.62474553 22.62417754 -43.18945312 18.9140625 C-36.83453175 9.98617296 -24.84179506 7.24533669 -15 3.625 C-13.77410156 3.16222656 -12.54820312 2.69945312 -11.28515625 2.22265625 C-10.11855469 1.79082031 -8.95195312 1.35898438 -7.75 0.9140625 C-6.69296875 0.5217041 -5.6359375 0.1293457 -4.546875 -0.27490234 C-2 -1 -2 -1 0 0 Z " fill="#C9C9C9" transform="translate(208,194)"/>
<path d="M0 0 C2.5 1.5 2.5 1.5 4 3 C3.34 4.32 2.68 5.64 2 7 C-0.01822917 6.70703125 -2.03645833 6.4140625 -4.0546875 6.12109375 C-6.08140667 5.8315703 -6.08140667 5.8315703 -8 7 C-8 9.64 -8 12.28 -8 15 C-3.83775548 15.10041428 -3.83775548 15.10041428 0.25 14.4375 C2 14 2 14 4 15 C3.66411682 17.51912388 3.42645046 18.67196119 1.375 20.25 C-2.98509554 21.62687228 -6.62569496 21.61080224 -10.8125 19.75 C-13.19777062 17.8417835 -14.11189676 16.90651969 -15 14 C-15.48239106 9.65848046 -15.27120594 7.50500417 -13.1875 3.625 C-9.64111712 -0.63065945 -5.27185343 -0.63644106 0 0 Z " fill="#F0B722" transform="translate(197,270)"/>
<path d="M0 0 C3 1 3 1 4.07495117 2.64233398 C4.39439697 3.33657471 4.71384277 4.03081543 5.04296875 4.74609375 C5.39423828 5.50083984 5.74550781 6.25558594 6.10742188 7.03320312 C6.64206055 8.22333008 6.64206055 8.22333008 7.1875 9.4375 C7.55552734 10.22705078 7.92355469 11.01660156 8.30273438 11.83007812 C11 17.7000087 11 17.7000087 11 20 C9.02 20 7.04 20 5 20 C5 19.34 5 18.68 5 18 C0.65815798 18.18464366 0.65815798 18.18464366 -3 20 C-4.66617115 20.04063832 -6.33388095 20.042721 -8 20 C-7.35014905 15.28629244 -5.48438608 11.42313556 -3.4375 7.1875 C-2.9434668 6.14819336 -2.9434668 6.14819336 -2.43945312 5.08789062 C-1.63127749 3.38955052 -0.81631623 1.69444231 0 0 Z M1 10 C0.67 11.32 0.34 12.64 0 14 C0.99 13.67 1.98 13.34 3 13 C2.34 12.01 1.68 11.02 1 10 Z " fill="#F0B722" transform="translate(274,270)"/>
<path d="M0 0 C1.65 0 3.3 0 5 0 C5 1.98 5 3.96 5 6 C6.11375 5.6596875 6.11375 5.6596875 7.25 5.3125 C10 5 10 5 12.15625 6.09375 C14 8 14 8 14.390625 10.91796875 C14.32101563 12.53638672 14.32101563 12.53638672 14.25 14.1875 C14.21390625 15.27417969 14.1778125 16.36085938 14.140625 17.48046875 C14.07101563 18.72763672 14.07101563 18.72763672 14 20 C12.35 20 10.7 20 9 20 C9 16.7 9 13.4 9 10 C8.01 10.33 7.02 10.66 6 11 C5.67 13.97 5.34 16.94 5 20 C3.35 20 1.7 20 0 20 C0 13.4 0 6.8 0 0 Z " fill="#F0B722" transform="translate(203,270)"/>
<path d="M0 0 C1.65 0 3.3 0 5 0 C5.33 2.64 5.66 5.28 6 8 C6.66 7.34 7.32 6.68 8 6 C11.125 5.875 11.125 5.875 14 6 C12.79618552 8.49361571 11.54571278 10.68143083 10 13 C10.66 13.78375 11.32 14.5675 12 15.375 C14 18 14 18 14 20 C11.125 20.1875 11.125 20.1875 8 20 C7.34 19.01 6.68 18.02 6 17 C5.67 17.99 5.34 18.98 5 20 C3.35 20 1.7 20 0 20 C0 13.4 0 6.8 0 0 Z " fill="#F0B722" transform="translate(251,270)"/>
<path d="M0 0 C2.375 1.625 2.375 1.625 4 4 C4.5625 7.5 4.5625 7.5 4 11 C2 13.5 2 13.5 -1 15 C-4.93134203 15.30594101 -7.95460666 14.88205063 -11 12.3125 C-12.31791752 9.26481573 -12.47974051 7.28964918 -12 4 C-8.20909306 -0.67545189 -5.81912245 -1.51297184 0 0 Z M-6 4 C-7.01111093 7.04913228 -7.01111093 7.04913228 -6 10 C-4.35 9.67 -2.7 9.34 -1 9 C-1.33 7.35 -1.66 5.7 -2 4 C-3.32 4 -4.64 4 -6 4 Z " fill="#F0B722" transform="translate(324,276)"/>
<path d="M0 0 C2.27863153 2.88626661 3 4.3047018 3 8 C1.35 8.33 -0.3 8.66 -2 9 C-0.68 9.33 0.64 9.66 2 10 C1.67 11.32 1.34 12.64 1 14 C-5.24159797 15.34622701 -5.24159797 15.34622701 -8.875 13.6875 C-11 12 -11 12 -12 10 C-12.29123466 6.65080137 -12.36462337 4.64243165 -10.6875 1.6875 C-7.36811852 -1.63188148 -4.25563055 -1.24122558 0 0 Z " fill="#F0B722" transform="translate(231,276)"/>
<path d="M0 0 C1.65 0 3.3 0 5 0 C5.33 2.97 5.66 5.94 6 9 C6.66 9 7.32 9 8 9 C8.33 6.03 8.66 3.06 9 0 C10.65 0 12.3 0 14 0 C14.76982893 8.81026439 14.76982893 8.81026439 11.9375 13.1875 C9 15 9 15 5.3125 15 C2 14 2 14 0 11 C-0.1953125 8.30078125 -0.1953125 8.30078125 -0.125 5.3125 C-0.10695313 4.31863281 -0.08890625 3.32476562 -0.0703125 2.30078125 C-0.04710937 1.54152344 -0.02390625 0.78226562 0 0 Z " fill="#F0B722" transform="translate(286,276)"/>
<path d="M0 0 C-0.804375 0.45375 -1.60875 0.9075 -2.4375 1.375 C-5.08856572 2.74725665 -5.08856572 2.74725665 -6 5 C-5.34 5.33 -4.68 5.66 -4 6 C-4.99 6.33 -5.98 6.66 -7 7 C-8.18324935 9.44008386 -9.18284934 11.7819496 -10.125 14.3125 C-10.52138672 15.32860352 -10.52138672 15.32860352 -10.92578125 16.36523438 C-12.14734408 19.53695716 -13.29803439 22.66994361 -14 26 C-16.31 26 -18.62 26 -21 26 C-21 25.67 -21 25.34 -21 25 C-19.35 24.67 -17.7 24.34 -16 24 C-15.86722656 23.25234375 -15.73445312 22.5046875 -15.59765625 21.734375 C-15.42105469 20.74953125 -15.24445313 19.7646875 -15.0625 18.75 C-14.88847656 17.77546875 -14.71445313 16.8009375 -14.53515625 15.796875 C-14.09864867 13.51556532 -13.56333632 11.25334527 -13 9 C-17.95 10.485 -17.95 10.485 -23 12 C-23 11.34 -23 10.68 -23 10 C-22.01 9.67 -21.02 9.34 -20 9 C-21.32 8.34 -22.64 7.68 -24 7 C-20.37951535 5.63353607 -16.75297365 4.28394128 -13.125 2.9375 C-12.09246094 2.54755859 -11.05992187 2.15761719 -9.99609375 1.75585938 C-9.00996094 1.39169922 -8.02382812 1.02753906 -7.0078125 0.65234375 C-5.64100342 0.14175415 -5.64100342 0.14175415 -4.24658203 -0.37915039 C-2 -1 -2 -1 0 0 Z " fill="#A8A8A8" transform="translate(208,194)"/>
<path d="M0 0 C0.33 1.32 0.66 2.64 1 4 C-1.66666667 4.66666667 -4.33333333 5.33333333 -7 6 C-7 7.32 -7 8.64 -7 10 C-3.535 9.505 -3.535 9.505 0 9 C0.33 10.32 0.66 11.64 1 13 C-2 15 -2 15 -5.4375 14.875 C-9.33123193 13.91864479 -10.76861278 13.30245308 -13 10 C-13.5 7 -13.5 7 -13 4 C-8.81233357 -1.16478859 -6.37531571 -1.06255262 0 0 Z " fill="#F0B722" transform="translate(248,276)"/>
<path d="M0 0 C1.65 0 3.3 0 5 0 C5 1.65 5 3.3 5 5 C5.99 5 6.98 5 8 5 C8 6.32 8 7.64 8 9 C7.01 9 6.02 9 5 9 C5 10.98 5 12.96 5 15 C5.99 15.33 6.98 15.66 8 16 C8 17.32 8 18.64 8 20 C1.125 19.125 1.125 19.125 0 18 C-0.07179964 16.48071962 -0.08392007 14.95832518 -0.0625 13.4375 C-0.05347656 12.61121094 -0.04445313 11.78492188 -0.03515625 10.93359375 C-0.02355469 10.29550781 -0.01195312 9.65742188 0 9 C-0.66 9 -1.32 9 -2 9 C-2 7.68 -2 6.36 -2 5 C-1.34 5 -0.68 5 0 5 C0 3.35 0 1.7 0 0 Z " fill="#F0B722" transform="translate(303,271)"/>
<path d="M0 0 C0.99 0.66 1.98 1.32 3 2 C-0.96 2 -4.92 2 -9 2 C-7.02 2.66 -5.04 3.32 -3 4 C-3 4.33 -3 4.66 -3 5 C-4.01707031 5.02126953 -4.01707031 5.02126953 -5.0546875 5.04296875 C-14.15413615 5.50928399 -20.84605446 8.4267668 -28 14 C-28 10.4604779 -26.9808235 9.14535944 -24.65625 6.5625 C-17.41857444 -0.26549581 -9.72348774 -1.18731534 0 0 Z " fill="#A3A3A3" transform="translate(257,224)"/>
<path d="M0 0 C-0.33 0.66 -0.66 1.32 -1 2 C-1.99 2 -2.98 2 -4 2 C-4 2.66 -4 3.32 -4 4 C-4.9075 4.28875 -5.815 4.5775 -6.75 4.875 C-10.93800132 7.61330856 -11.56884372 10.17580897 -13.04296875 14.8203125 C-13.35878906 15.53960937 -13.67460937 16.25890625 -14 17 C-14.99 17.33 -15.98 17.66 -17 18 C-16.84402344 17.38511719 -16.68804687 16.77023438 -16.52734375 16.13671875 C-16.23537109 14.92435547 -16.23537109 14.92435547 -15.9375 13.6875 C-15.74027344 12.88699219 -15.54304687 12.08648437 -15.33984375 11.26171875 C-14.80114446 8.84042821 -14.80114446 8.84042821 -16 6 C-16.99 5.67 -17.98 5.34 -19 5 C-6.51480638 -0.74031891 -6.51480638 -0.74031891 0 0 Z " fill="#C6C6C6" transform="translate(189,202)"/>
<path d="M0 0 C0.33 0 0.66 0 1 0 C1 1.65 1 3.3 1 5 C7.67505193 5.16782889 14.35025846 5.32779181 21.02563477 5.48217773 C23.29846508 5.5356848 25.57125308 5.59102056 27.84399414 5.64819336 C31.10293449 5.72986216 34.36196836 5.80504251 37.62109375 5.87890625 C38.64400009 5.90594131 39.66690643 5.93297638 40.72080994 5.96083069 C41.66170975 5.98092697 42.60260956 6.00102325 43.57202148 6.02172852 C44.82111549 6.05170677 44.82111549 6.05170677 46.09544373 6.08229065 C48.01081903 6.21448897 48.01081903 6.21448897 49 5 C50.66617115 4.95936168 52.33388095 4.957279 54 5 C54.495 6.98 54.495 6.98 55 9 C54.01 9.33 53.02 9.66 52 10 C52 9.34 52 8.68 52 8 C34.84 7.67 17.68 7.34 0 7 C-1 3 -1 3 0 0 Z " fill="#9E9E9E" transform="translate(290,249)"/>
<path d="M0 0 C1.41366158 0.20895363 2.83060623 0.39690406 4.25 0.5625 C5.4875 0.706875 6.725 0.85125 8 1 C8 1.33 8 1.66 8 2 C4.50126246 2.50910422 1.00084399 3.005606 -2.5 3.5 C-3.97339844 3.71462891 -3.97339844 3.71462891 -5.4765625 3.93359375 C-11.04789162 4.71357983 -16.37493985 5.160716 -22 5 C-21.67 4.34 -21.34 3.68 -21 3 C-18.2238424 2.16508757 -15.50824252 1.45452603 -12.6875 0.8125 C-11.52831055 0.52729492 -11.52831055 0.52729492 -10.34570312 0.23632812 C-9.59611328 0.06166016 -8.84652344 -0.11300781 -8.07421875 -0.29296875 C-7.38932373 -0.4530542 -6.70442871 -0.61313965 -5.9987793 -0.77807617 C-3.73568827 -1.02934645 -2.16752921 -0.65051221 0 0 Z " fill="#747474" transform="translate(186,221)"/>
<path d="M0 0 C-1.68008423 3.78248472 -4.07838554 6.9692422 -6.5625 10.25 C-6.97435547 10.80429688 -7.38621094 11.35859375 -7.81054688 11.9296875 C-8.84693249 13.30701175 -9.92038579 14.6562923 -11 16 C-11.33 16 -11.66 16 -12 16 C-12.45167398 10.86597239 -11.50357441 8.57916161 -8.25 4.625 C-7.55390625 3.75101563 -6.8578125 2.87703125 -6.140625 1.9765625 C-4 0 -4 0 0 0 Z " fill="#C5C5C5" transform="translate(173,208)"/>
<path d="M0 0 C1.32 0.66 2.64 1.32 4 2 C4 2.99 4 3.98 4 5 C-17.78 4.505 -17.78 4.505 -40 4 C-40 3.67 -40 3.34 -40 3 C-26.8 2.67 -13.6 2.34 0 2 C0 1.34 0 0.68 0 0 Z " fill="#B1B1B1" transform="translate(286,205)"/>
<path d="M0 0 C0.99 0 1.98 0 3 0 C2.29568293 6.47971709 0.93308784 13.13382431 -2 19 C-4.31 19 -6.62 19 -9 19 C-9 18.67 -9 18.34 -9 18 C-7.35 17.67 -5.7 17.34 -4 17 C-3.87882813 16.27554688 -3.75765625 15.55109375 -3.6328125 14.8046875 C-2.75060421 9.71502427 -1.83557653 4.85116654 0 0 Z " fill="#9C9C9C" transform="translate(196,201)"/>
<path d="M0 0 C4.62 0.99 9.24 1.98 14 3 C14 3.66 14 4.32 14 5 C11.44080818 6.27959591 9.54515972 6.16816536 6.6875 6.1875 C5.27017578 6.20876953 5.27017578 6.20876953 3.82421875 6.23046875 C0.85593118 5.98824335 -1.30867165 5.24026607 -4 4 C-1.92446352 3.4465236 -0.15634036 3 2 3 C1.34 2.67 0.68 2.34 0 2 C0 1.34 0 0.68 0 0 Z " fill="#818181" transform="translate(284,223)"/>
<path d="M0 0 C0 0.66 0 1.32 0 2 C1.65 2 3.3 2 5 2 C4.41022253 3.8172331 3.80271547 5.62872043 3.1875 7.4375 C2.85105469 8.44683594 2.51460937 9.45617187 2.16796875 10.49609375 C1.78253906 11.32238281 1.39710938 12.14867187 1 13 C0.01 13.33 -0.98 13.66 -2 14 C-1.84402344 13.38511719 -1.68804687 12.77023438 -1.52734375 12.13671875 C-1.23537109 10.92435547 -1.23537109 10.92435547 -0.9375 9.6875 C-0.74027344 8.88699219 -0.54304687 8.08648437 -0.33984375 7.26171875 C0.19885554 4.84042821 0.19885554 4.84042821 -1 2 C-1.99 1.67 -2.98 1.34 -4 1 C-2 0 -2 0 0 0 Z " fill="#A0A0A0" transform="translate(174,206)"/>
<path d="M0 0 C-2.97 0.99 -5.94 1.98 -9 3 C-9 3.66 -9 4.32 -9 5 C-13.29 5 -17.58 5 -22 5 C-19.446213 2.446213 -17.46513321 2.60486977 -13.97265625 2.34375 C-11.68567639 2.08195924 -11.68567639 2.08195924 -9 0 C-5.29999436 -1.04359133 -3.88095757 -0.97023939 0 0 Z " fill="#C3C3C3" transform="translate(206,217)"/>
<path d="M0 0 C0.33 0.66 0.66 1.32 1 2 C1.66 2.33 2.32 2.66 3 3 C2.38348417 4.6490302 1.75652258 6.29415841 1.125 7.9375 C0.77695313 8.85402344 0.42890625 9.77054688 0.0703125 10.71484375 C-1 13 -1 13 -3 14 C-3.34615998 8.34605369 -2.43425238 4.96993194 0 0 Z " fill="#888888" transform="translate(148,230)"/>
<path d="M0 0 C1.2065625 0.0309375 1.2065625 0.0309375 2.4375 0.0625 C2.7675 1.3825 3.0975 2.7025 3.4375 4.0625 C2.4475 4.3925 1.4575 4.7225 0.4375 5.0625 C0.4375 4.4025 0.4375 3.7425 0.4375 3.0625 C-0.23796875 3.08570313 -0.9134375 3.10890625 -1.609375 3.1328125 C-2.94742187 3.15988281 -2.94742187 3.15988281 -4.3125 3.1875 C-5.19421875 3.21070313 -6.0759375 3.23390625 -6.984375 3.2578125 C-9.6760858 3.05389502 -11.26154974 2.42801721 -13.5625 1.0625 C-12.85222656 1.07410156 -12.14195312 1.08570313 -11.41015625 1.09765625 C-10.49105469 1.10667969 -9.57195312 1.11570313 -8.625 1.125 C-7.25021484 1.14240234 -7.25021484 1.14240234 -5.84765625 1.16015625 C-3.00788287 1.03879841 -2.9400358 0.07170819 0 0 Z " fill="#595959" transform="translate(341.5625,253.9375)"/>
<path d="M0 0 C0 0.66 0 1.32 0 2 C-3.13498292 3.85776765 -5.37471432 4.20140476 -9 4 C-9 2.68 -9 1.36 -9 0 C-5.62182575 -0.84454356 -3.32534757 -1.10844919 0 0 Z " fill="#848484" transform="translate(205,224)"/>
<path d="M0 0 C-1.98 0.99 -3.96 1.98 -6 3 C-4.68 3.66 -3.36 4.32 -2 5 C-6.95 6.485 -6.95 6.485 -12 8 C-12 7.34 -12 6.68 -12 6 C-11.01 5.67 -10.02 5.34 -9 5 C-10.32 4.34 -11.64 3.68 -13 3 C-11.21189234 2.30329584 -9.41937948 1.61788811 -7.625 0.9375 C-6.62726563 0.55464844 -5.62953125 0.17179688 -4.6015625 -0.22265625 C-2 -1 -2 -1 0 0 Z " fill="#777777" transform="translate(197,198)"/>
<path d="M0 0 C1.32 0 2.64 0 4 0 C2.55746343 3.36591866 0.66735273 5.51047079 -2 8 C-2.66 7.67 -3.32 7.34 -4 7 C-2.92598892 4.08482708 -2.22189824 2.22189824 0 0 Z " fill="#CFCFCF" transform="translate(169,208)"/>
<path d="M0 0 C0.66 0 1.32 0 2 0 C2 0.66 2 1.32 2 2 C2.66 2 3.32 2 4 2 C4 2.66 4 3.32 4 4 C2.68 4.33 1.36 4.66 0 5 C0 5.66 0 6.32 0 7 C-0.99 7 -1.98 7 -3 7 C-2.25 2.25 -2.25 2.25 0 0 Z " fill="#BABABA" transform="translate(152,225)"/>
<path d="M0 0 C1.21236328 0.01353516 1.21236328 0.01353516 2.44921875 0.02734375 C3.37154297 0.04474609 3.37154297 0.04474609 4.3125 0.0625 C3.3125 2.0625 3.3125 2.0625 1.75 2.6875 C-1.75148181 3.22618951 -5.14556833 3.12153219 -8.6875 3.0625 C-6.88341097 -0.54567807 -3.60175697 -0.05219938 0 0 Z " fill="#898989" transform="translate(172.6875,222.9375)"/>
<path d="M0 0 C0.33 0.66 0.66 1.32 1 2 C1.66 2.33 2.32 2.66 3 3 C0.69 4.65 -1.62 6.3 -4 8 C-4 4.09161134 -2.49432124 2.88405893 0 0 Z " fill="#919191" transform="translate(233,230)"/>
<path d="M0 0 C2.97 0.33 5.94 0.66 9 1 C9 1.33 9 1.66 9 2 C6.33333333 2.66666667 3.66666667 3.33333333 1 4 C0.25234375 4.18691406 -0.4953125 4.37382812 -1.265625 4.56640625 C-1.83796875 4.70949219 -2.4103125 4.85257813 -3 5 C-2.01 3.35 -1.02 1.7 0 0 Z " fill="#8E8E8E" transform="translate(152,237)"/>
<path d="M0 0 C2 2 2 2 2.1875 5.0625 C2 8 2 8 1 9 C-1.33297433 9.04092937 -3.66705225 9.04241723 -6 9 C-6 8.67 -6 8.34 -6 8 C-4.35 7.67 -2.7 7.34 -1 7 C-0.67 4.69 -0.34 2.38 0 0 Z " fill="#4B4B4B" transform="translate(193,211)"/>
<path d="M0 0 C1.32 0.66 2.64 1.32 4 2 C4 2.99 4 3.98 4 5 C1.36 5 -1.28 5 -4 5 C-4 4.34 -4 3.68 -4 3 C-2.68 2.67 -1.36 2.34 0 2 C0 1.34 0 0.68 0 0 Z " fill="#727272" transform="translate(286,205)"/>
<path d="M0 0 C2 3 2 3 1.625 5.6875 C1.41875 6.450625 1.2125 7.21375 1 8 C0.01 8.33 -0.98 8.66 -2 9 C-1.34 6.03 -0.68 3.06 0 0 Z " fill="#737373" transform="translate(174,211)"/>
<path d="M0 0 C0.66 0.33 1.32 0.66 2 1 C1.67 1.99 1.34 2.98 1 4 C-1.31 4 -3.62 4 -6 4 C-3.94766315 1.7522025 -2.99332739 0.9977758 0 0 Z " fill="#F1F1F1" transform="translate(196,198)"/>
<path d="M0 0 C-1.28519565 2.86697492 -2.57129254 4.97607712 -5 7 C-5.66 7 -6.32 7 -7 7 C-3.86206897 0 -3.86206897 0 0 0 Z " fill="#B1B1B1" transform="translate(241,234)"/>
<path d="M0 0 C0.66 0.33 1.32 0.66 2 1 C1.67 1.33 1.34 1.66 1 2 C1.66 2.66 2.32 3.32 3 4 C1.02 4.33 -0.96 4.66 -3 5 C-3 4.01 -3 3.02 -3 2 C-2.01 1.34 -1.02 0.68 0 0 Z " fill="#A4A4A4" transform="translate(237,227)"/>
<path d="M0 0 C0.99 0 1.98 0 3 0 C3 0.99 3 1.98 3 3 C1.68 3 0.36 3 -1 3 C-0.67 2.01 -0.34 1.02 0 0 Z " fill="#757575" transform="translate(175,227)"/>
</svg>
