<svg width="55" height="45" viewBox="0 0 55 45" fill="none" xmlns="http://www.w3.org/2000/svg">
<path d="M8.9044 44.5529L1.30439 38.5529C4.9044 34.6863 7.3044 31.1529 8.50439 27.9529C9.7044 24.7529 10.3044 21.4863 10.3044 18.1529L15.1044 21.3529H0.504395V0.75293H21.1044V15.3529C21.1044 20.8196 20.1711 25.8863 18.3044 30.5529C16.5711 35.2196 13.4377 39.8863 8.9044 44.5529ZM42.5044 44.5529L34.9044 38.5529C38.5044 34.6863 40.9044 31.1529 42.1044 27.9529C43.3044 24.7529 43.9044 21.4863 43.9044 18.1529L48.7044 21.3529H34.1044V0.75293H54.7044V15.3529C54.7044 20.8196 53.7711 25.8863 51.9044 30.5529C50.1711 35.2196 47.0377 39.8863 42.5044 44.5529Z" fill="#FDB913"/>
</svg>
