<?xml version="1.0" encoding="UTF-8"?>
<svg version="1.1" xmlns="http://www.w3.org/2000/svg" width="500" height="500">
<path d="M0 0 C0.474375 0.804375 0.94875 1.60875 1.4375 2.4375 C2.83032319 5.36970647 2.83032319 5.36970647 6.4375 6 C9.96019864 6.30161611 9.96019864 6.30161611 12.4375 4.5625 C12.953125 4.046875 13.46875 3.53125 14 3 C16.64 4.32 19.28 5.64 22 7 C22 7.66 22 8.32 22 9 C22.66 9 23.32 9 24 9 C24 12.63 24 16.26 24 20 C24.66 20 25.32 20 26 20 C26 20.66 26 21.32 26 22 C26.78375 21.814375 27.5675 21.62875 28.375 21.4375 C31 21 31 21 33 22 C34.90303246 27.18047725 35.19286332 31.50339543 35 37 C33.68 37 32.36 37 31 37 C30.74984127 40.41642759 30.74984127 40.41642759 31 44 C32.485 44.99 32.485 44.99 34 46 C33.56680729 51.41490891 32.43406135 54.75792422 29 59 C27.515 59.495 27.515 59.495 26 60 C24.515 59.01 24.515 59.01 23 58 C19.36060068 58.31730524 19.36060068 58.31730524 16 59 C16 60.98 16 62.96 16 65 C13.63386544 66.18306728 12.13219264 66.13354608 9.5 66.125 C8.7059375 66.12757813 7.911875 66.13015625 7.09375 66.1328125 C5 66 5 66 3 65 C2.375 62.4375 2.375 62.4375 2 60 C0.7625 59.649375 -0.475 59.29875 -1.75 58.9375 C-2.44609375 58.74027344 -3.1421875 58.54304688 -3.859375 58.33984375 C-6.00046467 57.83896686 -6.00046467 57.83896686 -8.0078125 58.6171875 C-10 59 -10 59 -12.0703125 57.85546875 C-12.74835938 57.30503906 -13.42640625 56.75460937 -14.125 56.1875 C-15.14980469 55.37345703 -15.14980469 55.37345703 -16.1953125 54.54296875 C-18 53 -18 53 -20 51 C-20 50.01 -20 49.02 -20 48 C-19.34 48 -18.68 48 -18 48 C-18.99 45.03 -19.98 42.06 -21 39 C-22.65 39 -24.3 39 -26 39 C-26.33 35.37 -26.66 31.74 -27 28 C-29.31 28 -31.62 28 -34 28 C-34.12375 29.093125 -34.2475 30.18625 -34.375 31.3125 C-35.02770131 36.58140765 -36.01264063 41.78520874 -37 47 C-33.7 47.33 -30.4 47.66 -27 48 C-27.90234375 56.765625 -27.90234375 56.765625 -29 61 C-32.06303578 61.08115993 -35.12390815 61.14057409 -38.1875 61.1875 C-39.48397461 61.22520508 -39.48397461 61.22520508 -40.80664062 61.26367188 C-45.65857492 61.31944123 -49.15424376 61.32303209 -53 58 C-55.29660169 54.81177648 -55.1411387 52.329042 -54.75 48.5 C-54.64429688 47.44554687 -54.53859375 46.39109375 -54.4296875 45.3046875 C-53.88289291 41.09934004 -53.14067016 36.94607217 -52.3046875 32.7890625 C-51.96164005 29.64885888 -52.41753203 27.0925278 -53 24 C-52.8125 20.25 -52.8125 20.25 -52 17 C-51.35933594 16.71898437 -50.71867188 16.43796875 -50.05859375 16.1484375 C-47.7385024 15.13677142 -47.7385024 15.13677142 -46.953125 12.3984375 C-46.60507813 10.90183594 -46.60507813 10.90183594 -46.25 9.375 C-45.8375 7.60125 -45.425 5.8275 -45 4 C-39.72 4 -34.44 4 -29 4 C-29.66 7.63 -30.32 11.26 -31 15 C-28.525 15.495 -28.525 15.495 -26 16 C-25.7834375 14.824375 -25.7834375 14.824375 -25.5625 13.625 C-25 11 -25 11 -24 9 C-23.34 9 -22.68 9 -22 9 C-22 8.34 -22 7.68 -22 7 C-18.50765756 6.90021879 -15.40562852 7.22157062 -12 8 C-10.78918149 4.89459074 -10.78918149 4.89459074 -11 1 C-7.25838676 0.11962041 -3.83196766 -0.49982187 0 0 Z M-10 21 C-13.00568779 25.50853168 -12.810593 29.72057254 -12 35 C-9.10684037 41.39591476 -4.72729712 45.99299386 1.4375 49.3125 C4.73594488 50.19744863 6.72366829 49.95559675 10 49 C13.13194005 46.86458633 14.88956088 45.16565867 17 42 C17.88532482 36.20421074 17.30197415 30.94558725 14.4140625 25.82421875 C11.42194471 21.9642215 7.34313234 19.17156617 3 17 C-2.69941954 16.45197889 -5.56532643 17.39038198 -10 21 Z " fill="#2E2D2C" transform="translate(251,269)"/>
<path d="M0 0 C0.92876953 -0.00257813 1.85753906 -0.00515625 2.81445312 -0.0078125 C3.78189453 -0.00007813 4.74933594 0.00765625 5.74609375 0.015625 C6.71740234 0.00789063 7.68871094 0.00015625 8.68945312 -0.0078125 C9.61693359 -0.00523437 10.54441406 -0.00265625 11.5 0 C12.35021729 0.00225586 13.20043457 0.00451172 14.07641602 0.00683594 C16.18359375 0.265625 16.18359375 0.265625 18.18359375 2.265625 C18.76119464 4.83912423 19.22438582 7.35053129 19.62109375 9.953125 C19.74597168 10.73244385 19.87084961 11.5117627 19.99951172 12.31469727 C21.21846457 20.099408 22.21985097 27.91491506 23.18139648 35.73510742 C23.29813721 36.67201416 23.41487793 37.6089209 23.53515625 38.57421875 C23.63650879 39.40751709 23.73786133 40.24081543 23.84228516 41.09936523 C24.15004116 43.43950788 24.15004116 43.43950788 25.18359375 46.265625 C25.31759078 50.26945632 25.22668262 54.2583605 25.18359375 58.265625 C19.24359375 58.265625 13.30359375 58.265625 7.18359375 58.265625 C6.19359375 53.315625 6.19359375 53.315625 5.18359375 48.265625 C-4.85047794 47.27963421 -4.85047794 47.27963421 -14.81640625 48.265625 C-17.08819128 50.7558509 -17.80770578 52.91141852 -18.98828125 56.0390625 C-20.81640625 58.265625 -20.81640625 58.265625 -22.77929688 58.73925781 C-28.1466135 59.17139107 -33.46662001 58.77032181 -38.81640625 58.265625 C-38.32227118 53.128189 -36.46894084 49.48435309 -33.75390625 45.203125 C-33.34978516 44.54828125 -32.94566406 43.8934375 -32.52929688 43.21875 C-31.29977905 41.2292016 -30.05836113 39.24742511 -28.81640625 37.265625 C-27.48151868 35.09991556 -26.14809473 32.93330303 -24.81640625 30.765625 C-24.171875 29.72148437 -23.52734375 28.67734375 -22.86328125 27.6015625 C-20.57760408 23.87643215 -18.31661225 20.13725513 -16.06640625 16.390625 C-15.70160156 15.78412109 -15.33679688 15.17761719 -14.9609375 14.55273438 C-14.43306641 13.67198242 -14.43306641 13.67198242 -13.89453125 12.7734375 C-13.54970703 12.19883789 -13.20488281 11.62423828 -12.84960938 11.03222656 C-12.13555222 9.8113103 -11.44274917 8.57780373 -10.76757812 7.33496094 C-7.92993771 2.12544083 -6.00403451 0.01590924 0 0 Z M1.18359375 21.265625 C0.01411373 22.90946044 -1.15192075 24.55574769 -2.31640625 26.203125 C-2.96609375 27.11964844 -3.61578125 28.03617187 -4.28515625 28.98046875 C-5.90918373 30.94562164 -5.90918373 30.94562164 -5.81640625 32.265625 C-2.51640625 32.265625 0.78359375 32.265625 4.18359375 32.265625 C3.99796875 30.1 3.99796875 30.1 3.80859375 27.890625 C3.73898438 27.07851563 3.669375 26.26640625 3.59765625 25.4296875 C3.35466787 23.06228309 3.35466787 23.06228309 1.18359375 21.265625 Z " fill="#292927" transform="translate(118.81640625,271.734375)"/>
<path d="M0 0 C1.10371948 0.00628418 1.10371948 0.00628418 2.22973633 0.01269531 C11.18509863 0.19595515 19.63332344 1.57962166 26.75 7.3125 C25.47047827 11.15106519 23.16526635 12.70097075 20.0625 15.0625 C19.54494141 15.48660156 19.02738281 15.91070312 18.49414062 16.34765625 C15.77268519 18.42856987 14.21939915 19.33394774 10.7578125 19.17578125 C9.76523438 18.89089844 8.77265625 18.60601562 7.75 18.3125 C6.69941406 18.06371094 5.64882812 17.81492188 4.56640625 17.55859375 C3.49261719 17.29175781 2.41882813 17.02492187 1.3125 16.75 C-11.05668807 13.9159761 -21.66770269 16.21095918 -32.62890625 22.55859375 C-39.96619529 27.45570081 -39.96619529 27.45570081 -45.25 34.3125 C-45.91 34.3125 -46.57 34.3125 -47.25 34.3125 C-47.518125 35.158125 -47.78625 36.00375 -48.0625 36.875 C-49.25 40.3125 -49.25 40.3125 -50.8125 43.9375 C-53.6373897 50.56984974 -54.46317318 57.5171871 -52.671875 64.59765625 C-50.19786101 70.43408017 -45.89090079 73.65693747 -40.25 76.3125 C-27.54415764 80.73022365 -13.98518897 76.86495514 -2.25 71.3125 C0.47307527 69.73674711 3.11846689 68.1105107 5.7265625 66.3515625 C6.39429688 66.00867188 7.06203125 65.66578125 7.75 65.3125 C9.235 65.8075 9.235 65.8075 10.75 66.3125 C10.75 67.3025 10.75 68.2925 10.75 69.3125 C11.41 69.3125 12.07 69.3125 12.75 69.3125 C15.84464789 73.43869718 15.84464789 73.43869718 15.53125 76.33203125 C14.0105156 80.18709295 10.31690917 81.55810912 6.75 83.3125 C-9.43894989 89.99548287 -27.28531695 93.82264409 -44.3046875 87.765625 C-51.41952535 84.2553867 -57.91116989 78.60845073 -60.6953125 71.01171875 C-63.85781214 55.62237192 -59.4720052 41.39480384 -51.25 28.3125 C-47.41748004 22.59096547 -47.41748004 22.59096547 -45.25 20.3125 C-44.59 20.3125 -43.93 20.3125 -43.25 20.3125 C-43.25 19.6525 -43.25 18.9925 -43.25 18.3125 C-41.32412421 16.68110063 -39.40673283 15.17526775 -37.375 13.6875 C-36.81941406 13.26726562 -36.26382813 12.84703125 -35.69140625 12.4140625 C-31.51235288 9.3125 -31.51235288 9.3125 -29.25 9.3125 C-29.25 8.6525 -29.25 7.9925 -29.25 7.3125 C-27.25244091 6.51469439 -25.25181115 5.72457575 -23.25 4.9375 C-22.13625 4.49664062 -21.0225 4.05578125 -19.875 3.6015625 C-13.17951206 1.2206239 -7.11526597 -0.05596739 0 0 Z " fill="#C02E27" transform="translate(174.25,178.6875)"/>
<path d="M0 0 C1.08410156 0.00257813 2.16820312 0.00515625 3.28515625 0.0078125 C4.90744141 0.00394531 4.90744141 0.00394531 6.5625 0 C9.34765625 0.1328125 9.34765625 0.1328125 11.34765625 1.1328125 C10.60104913 6.85680043 9.51888484 12.48135027 8.34765625 18.1328125 C9.05019531 17.80925781 9.75273437 17.48570312 10.4765625 17.15234375 C16.40636182 15.04665991 22.99028249 15.34702125 28.91015625 17.3203125 C31.83634567 19.49619694 33.03505743 20.70547115 34.34765625 24.1328125 C35.22545901 32.3723731 33.31668259 40.21453805 31.47265625 48.1953125 C31.20324219 49.42958984 30.93382812 50.66386719 30.65625 51.93554688 C29.13511877 58.6693351 29.13511877 58.6693351 28.34765625 61.1328125 C25.28232461 62.66547832 22.08011353 62.23557721 18.72265625 62.1953125 C18.01625 62.19080078 17.30984375 62.18628906 16.58203125 62.18164062 C14.8372035 62.16985125 13.09241925 62.15191574 11.34765625 62.1328125 C10.24462497 58.07602632 10.53617995 55.40995034 11.66015625 51.3828125 C11.94117188 50.33351562 12.2221875 49.28421875 12.51171875 48.203125 C12.78757813 47.18992188 13.0634375 46.17671875 13.34765625 45.1328125 C14.63314255 40.03733064 15.61943196 35.43243888 15.34765625 30.1328125 C12.37765625 30.1328125 9.40765625 30.1328125 6.34765625 30.1328125 C5.96673828 31.89044922 5.96673828 31.89044922 5.578125 33.68359375 C1.29762054 53.28291963 1.29762054 53.28291963 -1.65234375 62.1328125 C-7.26234375 62.1328125 -12.87234375 62.1328125 -18.65234375 62.1328125 C-18.65234375 56.84664002 -18.38784378 52.93471006 -17.33984375 47.8828125 C-17.20376709 47.22514893 -17.06769043 46.56748535 -16.92749023 45.88989258 C-15.95102472 41.27208306 -14.77042539 36.74325826 -13.4609375 32.2109375 C-12.81268947 29.74321069 -12.25830629 27.30264986 -11.75 24.8046875 C-6.75077993 0.33803611 -6.75077993 0.33803611 0 0 Z " fill="#C02A24" transform="translate(212.65234375,200.8671875)"/>
<path d="M0 0 C5.28 0.33 10.56 0.66 16 1 C15.22201595 8.54265023 13.67271867 15.89477514 12.125 23.3125 C11.86847656 24.56740234 11.61195313 25.82230469 11.34765625 27.11523438 C9.98317611 33.69422281 8.49292386 40.19452816 6.65625 46.65844727 C6.00837301 48.97012442 5.43392277 51.29041862 4.875 53.625 C4 57 4 57 3 58 C-0.98692664 58.3892409 -4.99785557 58.47159198 -9 58.625 C-10.11246094 58.6765625 -11.22492188 58.728125 -12.37109375 58.78125 C-29.42991903 59.46440673 -29.42991903 59.46440673 -37 55 C-37 54.34 -37 53.68 -37 53 C-37.66 53 -38.32 53 -39 53 C-42.53534538 45.92930924 -41.23308162 38.28818947 -39 31 C-37.78184404 27.94066176 -36.44156544 24.96010767 -35 22 C-34.34 22 -33.68 22 -33 22 C-32.814375 21.4225 -32.62875 20.845 -32.4375 20.25 C-29.98704927 16.41451191 -26.0104348 15.0052174 -22 13 C-20.62451844 12.91691362 -19.24514204 12.89263984 -17.8671875 12.90234375 C-17.06152344 12.90556641 -16.25585938 12.90878906 -15.42578125 12.91210938 C-14.58402344 12.92048828 -13.74226563 12.92886719 -12.875 12.9375 C-11.60076172 12.94426758 -11.60076172 12.94426758 -10.30078125 12.95117188 C-8.20049091 12.96297126 -6.1002367 12.98090694 -4 13 C-2.68 8.71 -1.36 4.42 0 0 Z M-19.5 26.625 C-23.09324432 32.31430351 -23.26116442 37.47088948 -23 44 C-19.93753253 45.78409802 -17.77920727 46.22880021 -14.25 46.125 C-13.05117188 46.09792969 -13.05117188 46.09792969 -11.828125 46.0703125 C-11.22484375 46.04710937 -10.6215625 46.02390625 -10 46 C-9.30278105 43.06449875 -8.61690995 40.12712524 -7.9375 37.1875 C-7.73833984 36.35412109 -7.53917969 35.52074219 -7.33398438 34.66210938 C-7.15029297 33.85966797 -6.96660156 33.05722656 -6.77734375 32.23046875 C-6.60452881 31.49207764 -6.43171387 30.75368652 -6.25366211 29.99291992 C-5.82757006 27.7948223 -5.82757006 27.7948223 -7 25 C-13.56372849 24.38048219 -13.56372849 24.38048219 -19.5 26.625 Z " fill="#2E2D2C" transform="translate(391,272)"/>
<path d="M0 0 C6.27 0 12.54 0 19 0 C17 9.25 17 9.25 16.3671875 12.14550781 C16.20476562 12.90702148 16.04234375 13.66853516 15.875 14.453125 C15.70742188 15.22817383 15.53984375 16.00322266 15.3671875 16.80175781 C14.89016383 19.28610674 14.89016383 19.28610674 15 23 C15.71800781 22.0615625 16.43601562 21.123125 17.17578125 20.15625 C25.78070638 9.82949026 25.78070638 9.82949026 33.09375 9.13671875 C37.77314942 9.04588207 42.35862742 9.42656748 47 10 C46.22086852 13.76239771 45.1381944 15.07178473 42.125 17.5 C39.8835127 19.31965759 38.08306743 20.88712368 36.3671875 23.21875 C35.91601562 23.8065625 35.46484375 24.394375 35 25 C34.34 25 33.68 25 33 25 C33 25.66 33 26.32 33 27 C32.34 27 31.68 27 31 27 C31 27.66 31 28.32 31 29 C30.34 29.66 29.68 30.32 29 31 C29.26216309 31.54938232 29.52432617 32.09876465 29.79443359 32.66479492 C30.98956068 35.17160174 32.18230011 37.67953751 33.375 40.1875 C33.7875 41.05181641 34.2 41.91613281 34.625 42.80664062 C35.02460938 43.64775391 35.42421875 44.48886719 35.8359375 45.35546875 C36.20251465 46.12528076 36.5690918 46.89509277 36.94677734 47.68823242 C38.04443886 50.09754093 39.03527336 52.53479932 40 55 C39 56 39 56 37.14233398 56.11352539 C35.95619507 56.10567017 35.95619507 56.10567017 34.74609375 56.09765625 C33.59258423 56.09390991 33.59258423 56.09390991 32.41577148 56.09008789 C31.43294189 56.08098389 30.4501123 56.07187988 29.4375 56.0625 C26.323125 56.041875 23.20875 56.02125 20 56 C15.545 46.595 15.545 46.595 11 37 C9.72457439 42.87790773 9.72457439 42.87790773 8.45727539 48.75756836 C8.21738892 49.85016968 8.21738892 49.85016968 7.97265625 50.96484375 C7.81031494 51.7137085 7.64797363 52.46257324 7.48071289 53.23413086 C7 55 7 55 6 56 C3.13732433 56.07325168 0.299281 56.09238205 -2.5625 56.0625 C-3.36880859 56.05798828 -4.17511719 56.05347656 -5.00585938 56.04882812 C-7.00393756 56.03700518 -9.00197783 56.01906914 -11 56 C-10.39022835 48.49321662 -8.81684368 41.30083702 -7.103302 33.98196411 C-6.29808529 30.54012892 -5.50949813 27.09451329 -4.72265625 23.6484375 C-4.56987717 22.97988235 -4.41709808 22.31132721 -4.25968933 21.62251282 C-2.62998712 14.44542119 -1.27032025 7.24829791 0 0 Z " fill="#C0241D" transform="translate(352,207)"/>
<path d="M0 0 C0.87591797 -0.00322266 1.75183594 -0.00644531 2.65429688 -0.00976562 C7.13285522 0.02758399 10.74930459 0.20098437 14.8125 2.3125 C14.8125 2.9725 14.8125 3.6325 14.8125 4.3125 C15.4725 4.3125 16.1325 4.3125 16.8125 4.3125 C19.13766592 7.80024889 19.1103715 9.31226214 19.125 13.4375 C19.14175781 14.51257813 19.15851563 15.58765625 19.17578125 16.6953125 C18.8125 20.3125 18.8125 20.3125 15.8125 29.3125 C5.9125 29.3125 -3.9875 29.3125 -14.1875 29.3125 C-13.8575 30.3025 -13.5275 31.2925 -13.1875 32.3125 C-10.08326612 33.52467585 -6.84927545 33.50594453 -3.546875 33.62890625 C-2.47695313 33.67080078 -1.40703125 33.71269531 -0.3046875 33.75585938 C1.36207031 33.81483398 1.36207031 33.81483398 3.0625 33.875 C4.75246094 33.93977539 4.75246094 33.93977539 6.4765625 34.00585938 C9.25508954 34.11182015 12.03370391 34.21389142 14.8125 34.3125 C14.50480293 36.12582154 14.19120936 37.93814345 13.875 39.75 C13.70097656 40.75933594 13.52695312 41.76867187 13.34765625 42.80859375 C12.8125 45.3125 12.8125 45.3125 11.8125 46.3125 C7.48591149 46.53194593 3.15361781 46.49828872 -1.17797852 46.49780273 C-3.34867411 46.49997367 -5.51884862 46.51807982 -7.68945312 46.53710938 C-9.07812327 46.54004644 -10.46679582 46.54202914 -11.85546875 46.54296875 C-13.11641357 46.54707764 -14.3773584 46.55118652 -15.67651367 46.55541992 C-21.63630486 46.14307083 -25.88922871 44.49137487 -30.1875 40.3125 C-33.59753654 34.46672307 -32.52849021 28.08278371 -31 21.8125 C-28.65566958 13.90312355 -25.08431475 8.04560816 -18.1875 3.3125 C-11.93550526 0.47442344 -6.82106974 -0.12716387 0 0 Z M-9.1875 13.3125 C-9.1875 13.9725 -9.1875 14.6325 -9.1875 15.3125 C-9.8475 15.3125 -10.5075 15.3125 -11.1875 15.3125 C-11.1875 16.3025 -11.1875 17.2925 -11.1875 18.3125 C-6.8975 18.3125 -2.6075 18.3125 1.8125 18.3125 C2.1425 16.6625 2.4725 15.0125 2.8125 13.3125 C-1.962853 11.62708129 -4.63479118 10.82920428 -9.1875 13.3125 Z " fill="#C2231B" transform="translate(278.1875,216.6875)"/>
<path d="M0 0 C1.48831242 0.00667405 2.97660807 0.01863442 4.46484375 0.03515625 C5.22345703 0.03966797 5.98207031 0.04417969 6.76367188 0.04882812 C8.64326246 0.06064945 10.52281274 0.07858547 12.40234375 0.09765625 C11.71762815 6.28892677 10.61286821 12.31493314 9.33984375 18.41015625 C8.971266 20.17652368 8.60526442 21.94343118 8.2421875 23.7109375 C8.00036743 24.86783081 8.00036743 24.86783081 7.75366211 26.0480957 C7.31786999 28.24389334 7.31786999 28.24389334 7.40234375 31.09765625 C10.70234375 31.75765625 14.00234375 32.41765625 17.40234375 33.09765625 C17.51578125 32.19660156 17.62921875 31.29554688 17.74609375 30.3671875 C18.5435671 24.79189406 19.74822067 19.2952696 20.90234375 13.78515625 C21.12792969 12.68880859 21.35351562 11.59246094 21.5859375 10.46289062 C21.91271484 8.89571289 21.91271484 8.89571289 22.24609375 7.296875 C22.44396484 6.34643311 22.64183594 5.39599121 22.84570312 4.41674805 C23.40234375 2.09765625 23.40234375 2.09765625 24.40234375 0.09765625 C29.68234375 0.09765625 34.96234375 0.09765625 40.40234375 0.09765625 C39.69551732 8.10835581 38.12090982 15.85932096 36.46484375 23.72265625 C36.19994141 25.0065625 35.93503906 26.29046875 35.66210938 27.61328125 C34.43059576 33.51721254 33.1069205 39.31428721 31.40234375 45.09765625 C26.9030996 45.32513602 22.40304069 45.52619726 17.90234375 45.72265625 C16.63390625 45.78710938 15.36546875 45.8515625 14.05859375 45.91796875 C-1.75560363 46.57689364 -1.75560363 46.57689364 -7.53515625 41.53515625 C-8.21578125 40.73078125 -8.89640625 39.92640625 -9.59765625 39.09765625 C-9.92765625 38.76765625 -10.25765625 38.43765625 -10.59765625 38.09765625 C-11.53776356 29.57504404 -9.84227113 21.96502754 -7.6171875 13.83203125 C-6.78456351 10.78226676 -6.05533955 7.75309604 -5.41015625 4.66015625 C-4.37439473 0.11874036 -4.37439473 0.11874036 0 0 Z " fill="#2D2D2C" transform="translate(157.59765625,284.90234375)"/>
<path d="M0 0 C1.20527344 0.00322266 2.41054688 0.00644531 3.65234375 0.00976562 C4.90660156 0.01814453 6.16085937 0.02652344 7.453125 0.03515625 C9.35771484 0.04192383 9.35771484 0.04192383 11.30078125 0.04882812 C14.43494336 0.06061069 17.56901041 0.07706209 20.703125 0.09765625 C20.56081692 1.51468138 20.41411754 2.93126585 20.265625 4.34765625 C20.18441406 5.1365625 20.10320312 5.92546875 20.01953125 6.73828125 C19.72677507 8.92130264 19.28248081 10.97497445 18.703125 13.09765625 C18.11821289 13.1227124 17.53330078 13.14776855 16.93066406 13.17358398 C14.27128029 13.28988587 11.61222097 13.41245692 8.953125 13.53515625 C7.57253906 13.59413086 7.57253906 13.59413086 6.1640625 13.65429688 C4.82988281 13.71713867 4.82988281 13.71713867 3.46875 13.78125 C2.65180664 13.81790771 1.83486328 13.85456543 0.99316406 13.89233398 C-1.23158308 14.09180225 -3.18503692 14.36638856 -5.296875 15.09765625 C-6.4452315 17.23572736 -6.4452315 17.23572736 -7.046875 19.84765625 C-7.28921875 20.70875 -7.5315625 21.56984375 -7.78125 22.45703125 C-8.55185268 26.40345102 -8.57193065 29.27248929 -7.296875 33.09765625 C-0.366875 33.09765625 6.563125 33.09765625 13.703125 33.09765625 C14.83070589 36.48039891 14.52062762 37.86543848 13.765625 41.28515625 C13.57097656 42.18621094 13.37632812 43.08726562 13.17578125 44.015625 C13.01980469 44.70269531 12.86382812 45.38976562 12.703125 46.09765625 C8.36992105 46.18538204 4.03694832 46.23829204 -0.296875 46.28515625 C-1.51761719 46.31029297 -2.73835938 46.33542969 -3.99609375 46.36132812 C-10.82504837 46.41669803 -16.15115305 46.18882986 -22.296875 43.09765625 C-27.41441137 37.71768212 -27.64209254 33.86132819 -27.578125 26.625 C-26.96440607 18.92794174 -23.97127235 10.56354556 -18.296875 5.09765625 C-12.38417059 1.23846595 -7.01721827 -0.03310009 0 0 Z " fill="#C02B24" transform="translate(325.296875,216.90234375)"/>
<path d="M0 0 C3.34249629 0.59687434 5.46436342 1.73603877 8 4 C8 4.66 8 5.32 8 6 C6.42578125 7.515625 6.42578125 7.515625 4.3125 9.25 C1.64650867 11.50075728 -0.71010091 13.70049545 -2.875 16.4375 C-3.57625 17.283125 -4.2775 18.12875 -5 19 C-5.66 19 -6.32 19 -7 19 C-7 19.66 -7 20.32 -7 21 C-7.66 21 -8.32 21 -9 21 C-9.20238281 21.53109375 -9.40476563 22.0621875 -9.61328125 22.609375 C-11.60456649 26.04223857 -14.34478198 28.50876499 -17.1875 31.25 C-22.86361307 36.82084102 -28.41437646 42.39579749 -33.0625 48.875 C-35.57979263 51.63590159 -37.31610061 52.4105761 -41 53 C-44.375 51.625 -44.375 51.625 -47 50 C-47 49.34 -47 48.68 -47 48 C-47.66 48 -48.32 48 -49 48 C-52 44.53846154 -52 44.53846154 -52 42 C-52.66 42 -53.32 42 -54 42 C-56.60018816 38.09971775 -56.15085514 34.52565431 -56 30 C-55.34 30 -54.68 30 -54 30 C-54 29.34 -54 28.68 -54 28 C-51.13391871 26.56695936 -49.18699217 26.69355845 -46 27 C-42.75 29 -42.75 29 -40 31 C-36.49680834 31 -34.16425312 27.90515168 -31.625 25.6875 C-21.58112903 17 -21.58112903 17 -19 17 C-19 16.34 -19 15.68 -19 15 C-17.3125 13.484375 -17.3125 13.484375 -15 11.75 C-14.18402344 11.13511719 -13.36804688 10.52023438 -12.52734375 9.88671875 C-11.69332031 9.26410156 -10.85929687 8.64148438 -10 8 C-9.23816406 7.40832031 -8.47632813 6.81664062 -7.69140625 6.20703125 C-6.63759766 5.39298828 -6.63759766 5.39298828 -5.5625 4.5625 C-4.92441406 4.06878906 -4.28632813 3.57507813 -3.62890625 3.06640625 C-2 2 -2 2 0 2 C0 1.34 0 0.68 0 0 Z " fill="#2E2E2C" transform="translate(205,190)"/>
<path d="M0 0 C1.68330876 3.36661753 -0.03882273 6.87335784 -0.9375 10.375 C-1.32580439 11.90258692 -1.71005854 13.43121031 -2.08984375 14.9609375 C-2.26378662 15.63946777 -2.43772949 16.31799805 -2.61694336 17.01708984 C-3.12644822 19.31796988 -3.12644822 19.31796988 -3 23 C-2.28199219 22.0615625 -1.56398438 21.123125 -0.82421875 20.15625 C7.78070638 9.82949026 7.78070638 9.82949026 15.09375 9.13671875 C19.77314942 9.04588207 24.35862742 9.42656748 29 10 C28.22086852 13.76239771 27.1381944 15.07178473 24.125 17.5 C21.8835127 19.31965759 20.08306743 20.88712368 18.3671875 23.21875 C17.91601562 23.8065625 17.46484375 24.394375 17 25 C16.34 25 15.68 25 15 25 C15 25.66 15 26.32 15 27 C14.34 27 13.68 27 13 27 C13 27.66 13 28.32 13 29 C12.34 29.66 11.68 30.32 11 31 C11.26216309 31.54938232 11.52432617 32.09876465 11.79443359 32.66479492 C12.98956068 35.17160174 14.18230011 37.67953751 15.375 40.1875 C15.7875 41.05181641 16.2 41.91613281 16.625 42.80664062 C17.02460938 43.64775391 17.42421875 44.48886719 17.8359375 45.35546875 C18.20251465 46.12528076 18.5690918 46.89509277 18.94677734 47.68823242 C20.04443886 50.09754093 21.03527336 52.53479932 22 55 C21 56 21 56 19.14233398 56.11352539 C18.35157471 56.10828857 17.56081543 56.10305176 16.74609375 56.09765625 C15.89208984 56.09443359 15.03808594 56.09121094 14.15820312 56.08789062 C13.26037109 56.07951172 12.36253906 56.07113281 11.4375 56.0625 C10.53580078 56.05798828 9.63410156 56.05347656 8.70507812 56.04882812 C6.46998686 56.03700225 4.23502563 56.0205222 2 56 C0.51480732 52.91953406 -0.96208605 49.83515998 -2.4375 46.75 C-2.85837891 45.87730469 -3.27925781 45.00460938 -3.71289062 44.10546875 C-4.11572266 43.26113281 -4.51855469 42.41679687 -4.93359375 41.546875 C-5.4913147 40.38430176 -5.4913147 40.38430176 -6.06030273 39.19824219 C-6.95071672 37.11528882 -7.62584675 35.2336623 -8 33 C-6.74458443 30.48916886 -5.49936512 30.12874554 -3 29 C-3 28.34 -3 27.68 -3 27 C-3.99 27 -4.98 27 -6 27 C-6.20637831 22.15010981 -5.65434355 18.06373124 -4.51171875 13.35546875 C-3.69509213 9.5964928 -3.36446479 5.8268803 -3 2 C-3.99 1.67 -4.98 1.34 -6 1 C-4.02 0.67 -2.04 0.34 0 0 Z " fill="#C12D26" transform="translate(370,207)"/>
<path d="M0 0 C3.22909006 -0.05834353 6.45804338 -0.09371115 9.6875 -0.125 C10.59951172 -0.14175781 11.51152344 -0.15851563 12.45117188 -0.17578125 C17.06848227 -0.20936169 20.81932331 -0.23556185 25 2 C25 2.66 25 3.32 25 4 C25.66 4 26.32 4 27 4 C29.32516592 7.48774889 29.2978715 8.99976214 29.3125 13.125 C29.32925781 14.20007813 29.34601563 15.27515625 29.36328125 16.3828125 C29 20 29 20 26 29 C16.1 29 6.2 29 -4 29 C-3.67 29.99 -3.34 30.98 -3 32 C0.10423388 33.21217585 3.33822455 33.19344453 6.640625 33.31640625 C7.71054687 33.35830078 8.78046875 33.40019531 9.8828125 33.44335938 C11.54957031 33.50233398 11.54957031 33.50233398 13.25 33.5625 C14.93996094 33.62727539 14.93996094 33.62727539 16.6640625 33.69335938 C19.44258954 33.79932015 22.22120391 33.90139142 25 34 C24.69230293 35.81332154 24.37870936 37.62564345 24.0625 39.4375 C23.88847656 40.44683594 23.71445312 41.45617187 23.53515625 42.49609375 C23 45 23 45 22 46 C17.67341149 46.21944593 13.34111781 46.18578872 9.00952148 46.18530273 C6.83882589 46.18747367 4.66865138 46.20557982 2.49804688 46.22460938 C1.10937673 46.22754644 -0.27929582 46.22952914 -1.66796875 46.23046875 C-2.92891357 46.23457764 -4.1898584 46.23868652 -5.48901367 46.24291992 C-11.44880486 45.83057083 -15.70172871 44.17887487 -20 40 C-23.41003654 34.15422307 -22.34099021 27.77028371 -20.8125 21.5 C-19.3461981 16.48664397 -17.30205142 12.07579945 -14 8 C-13.34 7.67 -12.68 7.34 -12 7 C-12.75 11.75 -12.75 11.75 -15 14 C-15.165 15.175625 -15.33 16.35125 -15.5 17.5625 C-15.665 18.696875 -15.83 19.83125 -16 21 C-16.66 21.33 -17.32 21.66 -18 22 C-17.67 22.66 -17.34 23.32 -17 24 C-16.67 24 -16.34 24 -16 24 C-15.83317728 28.92127034 -15.75171948 32.50343896 -18 37 C-17.34 37 -16.68 37 -16 37 C-16 38.32 -16 39.64 -16 41 C-12.75150023 39.27773504 -12.75150023 39.27773504 -12 36 C-11.34 36 -10.68 36 -10 36 C-9.34 35.34 -8.68 34.68 -8 34 C-8 33.01 -8 32.02 -8 31 C-7.34 31.33 -6.68 31.66 -6 32 C-5.67 30.35 -5.34 28.7 -5 27 C4.9 27 14.8 27 25 27 C25.33 22.71 25.66 18.42 26 14 C25.34 13.67 24.68 13.34 24 13 C24.66 13 25.32 13 26 13 C26.33 11.02 26.66 9.04 27 7 C25.35 7 23.7 7 22 7 C22 6.34 22 5.68 22 5 C16.9781656 3.02656348 12.44415968 2.5913726 7.125 2.375 C6.34125 2.33632812 5.5575 2.29765625 4.75 2.2578125 C2.83368633 2.16433378 0.91687681 2.08111505 -1 2 C-0.67 1.34 -0.34 0.68 0 0 Z " fill="#BD2D26" transform="translate(268,217)"/>
<path d="M0 0 C5.28 0 10.56 0 16 0 C16 4.60005699 15.91798448 6.96748629 14.6640625 11.09765625 C12.91797003 17.15563277 11.62202202 23.26012239 10.375 29.4375 C9.9459728 31.5404994 9.51631186 33.64336963 9.0859375 35.74609375 C8.8082251 37.11785767 8.8082251 37.11785767 8.52490234 38.51733398 C8.06571375 40.68918927 7.53839683 42.84641267 7 45 C1.72 45 -3.56 45 -9 45 C-9 36.10638298 -9 36.10638298 -7.75 32.25 C-5.87770393 25.9409834 -4.66384826 19.5416223 -3.44628906 13.08105469 C-3.28741211 12.25379883 -3.12853516 11.42654297 -2.96484375 10.57421875 C-2.8268335 9.83776123 -2.68882324 9.10130371 -2.54663086 8.3425293 C-1.88590926 5.51107607 -0.91943898 2.75831695 0 0 Z " fill="#343432" transform="translate(337,285)"/>
<path d="M0 0 C0.66 0.99 1.32 1.98 2 3 C1.67 3.99 1.34 4.98 1 6 C1.66 6 2.32 6 3 6 C3 5.34 3 4.68 3 4 C3.66 4 4.32 4 5 4 C5 3.34 5 2.68 5 2 C6.32 2.33 7.64 2.66 9 3 C8.236875 3.7425 7.47375 4.485 6.6875 5.25 C4.04428801 7.823554 4.04428801 7.823554 2.3125 10.3125 C1.6628125 11.1478125 1.6628125 11.1478125 1 12 C0.34 12 -0.32 12 -1 12 C-1.268125 12.845625 -1.53625 13.69125 -1.8125 14.5625 C-3 18 -3 18 -4.5625 21.625 C-7.3873897 28.25734974 -8.21317318 35.2046871 -6.421875 42.28515625 C-3.96251744 48.0870043 0.35204611 51.41418979 6 54 C9.64577388 54.97721774 13.24984672 55.59344133 17 56 C17 56.33 17 56.66 17 57 C13.535 57.495 13.535 57.495 10 58 C10.309375 58.763125 10.61875 59.52625 10.9375 60.3125 C11.67893593 62.18789677 12.36228217 64.08684652 13 66 C7.87138705 67.662701 3.77229823 66.20889232 -1 64 C-7.60896886 59.4303701 -13.34055542 54.07518454 -15 46 C-16.53858996 30.63046837 -12.80394316 16.51392864 -3.50390625 3.984375 C-2.37856727 2.61994134 -1.19670264 1.30229405 0 0 Z M12 59 C12.66 59.66 13.32 60.32 14 61 C13.34 61 12.68 61 12 61 C12 60.34 12 59.68 12 59 Z " fill="#C0231B" transform="translate(128,201)"/>
<path d="M0 0 C0.99 0.33 1.98 0.66 3 1 C3 1.99 3 2.98 3 4 C3.66 4 4.32 4 5 4 C8.09183673 8.12244898 8.09183673 8.12244898 7.7890625 11.015625 C6.26629049 14.84517046 2.55377674 16.26417993 -1 18 C-11.36893204 22 -11.36893204 22 -15 22 C-15 21.01 -15 20.02 -15 19 C-13.68 19 -12.36 19 -11 19 C-11.57452746 15.06924356 -11.57452746 15.06924356 -14 12 C-14.48984375 12.32742188 -14.9796875 12.65484375 -15.484375 12.9921875 C-19.04269563 14.41772589 -22.48203011 14.21154348 -26.25 14.125 C-26.99507812 14.11597656 -27.74015625 14.10695313 -28.5078125 14.09765625 C-30.33868059 14.07418358 -32.16938238 14.03831525 -34 14 C-34 13.67 -34 13.34 -34 13 C-33.12859375 12.84144531 -32.2571875 12.68289063 -31.359375 12.51953125 C-20.52316666 10.39685407 -10.69043396 7.33463428 -1.62109375 0.8203125 C-1.08613281 0.54960937 -0.55117187 0.27890625 0 0 Z " fill="#BC221B" transform="translate(182,244)"/>
<path d="M0 0 C1.98 0.66 3.96 1.32 6 2 C5.67 2.99 5.34 3.98 5 5 C4.01 5 3.02 5 2 5 C2.495 5.433125 2.99 5.86625 3.5 6.3125 C5 8 5 8 5 11 C5.99 11 6.98 11 8 11 C8.12375 12.134375 8.2475 13.26875 8.375 14.4375 C8.58125 15.613125 8.7875 16.78875 9 18 C9.66 18.33 10.32 18.66 11 19 C11.66 18.01 12.32 17.02 13 16 C14.62610337 20.22786875 13.65453403 21.03639791 12 26 C6.39 26 0.78 26 -5 26 C-4.35343144 17.10968231 -2.12977433 8.62806252 0 0 Z " fill="#BE302A" transform="translate(346,237)"/>
<path d="M0 0 C5.94 0 11.88 0 18 0 C16.125 11.75 16.125 11.75 15 14 C9.39 14 3.78 14 -2 14 C-1.125 4.5 -1.125 4.5 0 0 Z " fill="#3D3D3B" transform="translate(305,316)"/>
<path d="M0 0 C0.66 0.99 1.32 1.98 2 3 C1.67 3.99 1.34 4.98 1 6 C1.66 6 2.32 6 3 6 C3 5.34 3 4.68 3 4 C3.66 4 4.32 4 5 4 C5 3.34 5 2.68 5 2 C6.32 2.33 7.64 2.66 9 3 C8.236875 3.7425 7.47375 4.485 6.6875 5.25 C4.04428801 7.823554 4.04428801 7.823554 2.3125 10.3125 C1.6628125 11.1478125 1.6628125 11.1478125 1 12 C0.34 12 -0.32 12 -1 12 C-1.268125 12.845625 -1.53625 13.69125 -1.8125 14.5625 C-3 18 -3 18 -4.5625 21.625 C-8.08927426 29.9052526 -8.00634435 38.54465651 -5 47 C-5.66 47 -6.32 47 -7 47 C-9.40119059 43.39821412 -9.43771322 40.49133631 -9.625 36.3125 C-9.66367188 35.61060547 -9.70234375 34.90871094 -9.7421875 34.18554688 C-9.8362334 32.45745345 -9.9191968 30.72876325 -10 29 C-10.99 29.66 -11.98 30.32 -13 31 C-14.95146463 24.38941357 -11.78736853 18.97487026 -9 13 C-6.38817051 8.38595433 -3.765415 3.765415 0 0 Z " fill="#BC423E" transform="translate(128,201)"/>
<path d="M0 0 C3.22909006 -0.05834353 6.45804338 -0.09371115 9.6875 -0.125 C10.59951172 -0.14175781 11.51152344 -0.15851563 12.45117188 -0.17578125 C17.06848227 -0.20936169 20.81932331 -0.23556185 25 2 C25 2.66 25 3.32 25 4 C25.66 4 26.32 4 27 4 C29.32516592 7.48774889 29.2978715 8.99976214 29.3125 13.125 C29.32925781 14.20007813 29.34601563 15.27515625 29.36328125 16.3828125 C29 20 29 20 26 29 C16.1 29 6.2 29 -4 29 C-3.67 29.99 -3.34 30.98 -3 32 C0.10423388 33.21217585 3.33822455 33.19344453 6.640625 33.31640625 C7.71054687 33.35830078 8.78046875 33.40019531 9.8828125 33.44335938 C11.54957031 33.50233398 11.54957031 33.50233398 13.25 33.5625 C14.93996094 33.62727539 14.93996094 33.62727539 16.6640625 33.69335938 C19.44258954 33.79932015 22.22120391 33.90139142 25 34 C24.67 34.66 24.34 35.32 24 36 C20.06221489 35.8612922 16.12485777 35.71281508 12.1875 35.5625 C11.06794922 35.52318359 9.94839844 35.48386719 8.79492188 35.44335938 C7.18520508 35.38051758 7.18520508 35.38051758 5.54296875 35.31640625 C4.55321045 35.27974854 3.56345215 35.24309082 2.54370117 35.20532227 C0 35 0 35 -3 34 C-3.33 34.66 -3.66 35.32 -4 36 C-5 34 -5 34 -5 27 C4.9 27 14.8 27 25 27 C25.33 22.71 25.66 18.42 26 14 C25.34 13.67 24.68 13.34 24 13 C24.66 13 25.32 13 26 13 C26.33 11.02 26.66 9.04 27 7 C25.35 7 23.7 7 22 7 C22 6.34 22 5.68 22 5 C16.9781656 3.02656348 12.44415968 2.5913726 7.125 2.375 C6.34125 2.33632812 5.5575 2.29765625 4.75 2.2578125 C2.83368633 2.16433378 0.91687681 2.08111505 -1 2 C-0.67 1.34 -0.34 0.68 0 0 Z " fill="#B5423F" transform="translate(268,217)"/>
<path d="M0 0 C1.91906917 0.08266486 3.84089474 0.10740663 5.76171875 0.09765625 C7.43911133 0.09282227 7.43911133 0.09282227 9.15039062 0.08789062 C10.31763672 0.07951172 11.48488281 0.07113281 12.6875 0.0625 C13.86634766 0.05798828 15.04519531 0.05347656 16.25976562 0.04882812 C19.17322789 0.03703273 22.08658863 0.0205727 25 0 C25 2.31 25 4.62 25 7 C24.34 7 23.68 7 23 7 C23 7.66 23 8.32 23 9 C16.4 9.33 9.8 9.66 3 10 C2.34 8.02 1.68 6.04 1 4 C-1.99615946 2.6954344 -1.99615946 2.6954344 -5 2 C-5.33 1.34 -5.66 0.68 -6 0 C-3 -1 -3 -1 0 0 Z " fill="#C4251E" transform="translate(318,219)"/>
<path d="M0 0 C0 0.66 0 1.32 0 2 C-1.32 2.33 -2.64 2.66 -4 3 C-4.33 4.65 -4.66 6.3 -5 8 C-4.34 8.33 -3.68 8.66 -3 9 C-2.67 9.99 -2.34 10.98 -2 12 C-2.50789063 12.31453125 -3.01578125 12.6290625 -3.5390625 12.953125 C-4.22742188 13.38109375 -4.91578125 13.8090625 -5.625 14.25 C-6.35589844 14.70117188 -7.08679688 15.15234375 -7.83984375 15.6171875 C-9.67473651 16.79178431 -11.44047921 18.07329823 -13.1875 19.375 C-16 21 -16 21 -18.875 20.75 C-19.57625 20.5025 -20.2775 20.255 -21 20 C-21 20.66 -21 21.32 -21 22 C-21.66 22 -22.32 22 -23 22 C-23 22.66 -23 23.32 -23 24 C-23.66 24 -24.32 24 -25 24 C-25 21.36 -25 18.72 -25 16 C-24.34 16 -23.68 16 -23 16 C-23 15.34 -23 14.68 -23 14 C-21.07412421 12.36860063 -19.15673283 10.86276775 -17.125 9.375 C-16.56941406 8.95476562 -16.01382813 8.53453125 -15.44140625 8.1015625 C-11.26235288 5 -11.26235288 5 -9 5 C-9 4.34 -9 3.68 -9 3 C-2.25 0 -2.25 0 0 0 Z " fill="#C03732" transform="translate(154,183)"/>
<path d="M0 0 C3.34249629 0.59687434 5.46436342 1.73603877 8 4 C8 4.66 8 5.32 8 6 C6.42578125 7.515625 6.42578125 7.515625 4.3125 9.25 C1.64650867 11.50075728 -0.71010091 13.70049545 -2.875 16.4375 C-3.57625 17.283125 -4.2775 18.12875 -5 19 C-5.66 19 -6.32 19 -7 19 C-7 19.66 -7 20.32 -7 21 C-7.66 21 -8.32 21 -9 21 C-9.33 21.66 -9.66 22.32 -10 23 C-10.28875 22.071875 -10.5775 21.14375 -10.875 20.1875 C-12.41197068 15.75715389 -12.41197068 15.75715389 -16 13 C-14.27744283 11.53386553 -12.54666216 10.07738944 -10.8125 8.625 C-9.84957031 7.81289062 -8.88664063 7.00078125 -7.89453125 6.1640625 C-5.26884404 4.20099811 -3.08824959 3.0275346 0 2 C0 1.34 0 0.68 0 0 Z " fill="#464444" transform="translate(205,190)"/>
<path d="M0 0 C1.34384766 0.07250977 1.34384766 0.07250977 2.71484375 0.14648438 C3.65199219 0.20255859 4.58914063 0.25863281 5.5546875 0.31640625 C6.97201172 0.3947168 6.97201172 0.3947168 8.41796875 0.47460938 C10.7555294 0.60447386 13.09268295 0.73944495 15.4296875 0.87890625 C16.4296875 3.87890625 16.4296875 3.87890625 15.55859375 5.7421875 C15.18605469 6.44730469 14.81351562 7.15242187 14.4296875 7.87890625 C14.02585974 9.59715377 13.6727578 11.3279937 13.3671875 13.06640625 C12.53289035 17.7757034 12.53289035 17.7757034 11.4296875 18.87890625 C9.45255943 18.97790824 7.47178712 19.00861398 5.4921875 19.00390625 C3.86990234 19.00777344 3.86990234 19.00777344 2.21484375 19.01171875 C-0.5703125 18.87890625 -0.5703125 18.87890625 -2.5703125 17.87890625 C-3.1953125 14.81640625 -3.1953125 14.81640625 -3.5703125 11.87890625 C-1.9203125 10.88890625 -0.2703125 9.89890625 1.4296875 8.87890625 C1.0996875 7.22890625 0.7696875 5.57890625 0.4296875 3.87890625 C-0.5603125 4.20890625 -1.5503125 4.53890625 -2.5703125 4.87890625 C-3.5603125 4.54890625 -4.5503125 4.21890625 -5.5703125 3.87890625 C-5.9003125 2.88890625 -6.2303125 1.89890625 -6.5703125 0.87890625 C-4.11781157 -0.34734422 -2.72720815 -0.1553473 0 0 Z M0.4296875 11.87890625 C0.4296875 12.53890625 0.4296875 13.19890625 0.4296875 13.87890625 C-0.2303125 13.87890625 -0.8903125 13.87890625 -1.5703125 13.87890625 C-1.5703125 14.86890625 -1.5703125 15.85890625 -1.5703125 16.87890625 C2.7196875 16.87890625 7.0096875 16.87890625 11.4296875 16.87890625 C11.7596875 15.22890625 12.0896875 13.57890625 12.4296875 11.87890625 C7.6543345 10.19348754 4.98239632 9.39561053 0.4296875 11.87890625 Z " fill="#C12E28" transform="translate(268.5703125,218.12109375)"/>
<path d="M0 0 C0.66644531 0.48210937 1.33289063 0.96421875 2.01953125 1.4609375 C8.59958742 5.97034662 14.05143841 8.2466547 22 9 C22 9.33 22 9.66 22 10 C19.69 10.33 17.38 10.66 15 11 C15.4640625 12.1446875 15.4640625 12.1446875 15.9375 13.3125 C16.67893593 15.18789677 17.36228217 17.08684652 18 19 C12.97910451 20.68905701 8.73379328 18.97241387 4 17 C1.71930601 15.48701993 -0.02756375 13.92053004 -2 12 C0 11 0 11 3 11 C2.835 10.38125 2.67 9.7625 2.5 9.125 C2 7 2 7 2 5 C1.36096883 3.32254318 0.69658363 1.65438613 0 0 Z M17 12 C17.66 12.66 18.32 13.32 19 14 C18.34 14 17.68 14 17 14 C17 13.34 17 12.68 17 12 Z " fill="#C7413A" transform="translate(123,248)"/>
<path d="M0 0 C1.48831242 0.00667405 2.97660807 0.01863442 4.46484375 0.03515625 C5.22345703 0.03966797 5.98207031 0.04417969 6.76367188 0.04882812 C8.64326246 0.06064945 10.52281274 0.07858547 12.40234375 0.09765625 C12.07234375 3.39765625 11.74234375 6.69765625 11.40234375 10.09765625 C5.79234375 10.09765625 0.18234375 10.09765625 -5.59765625 10.09765625 C-4.61446194 0.12525684 -4.61446194 0.12525684 0 0 Z " fill="#3D3C3B" transform="translate(343.59765625,272.90234375)"/>
<path d="M0 0 C1.67316284 0.02356567 1.67316284 0.02356567 3.38012695 0.04760742 C5.19287109 0.06210938 5.19287109 0.06210938 7.04223633 0.0769043 C8.93619141 0.11460937 8.93619141 0.11460937 10.8684082 0.15307617 C12.77976562 0.17337891 12.77976562 0.17337891 14.72973633 0.1940918 C17.88054878 0.22949418 21.03051865 0.27887827 24.1809082 0.34057617 C24.03860012 1.7576013 23.89190075 3.17418577 23.7434082 4.59057617 C23.66219727 5.37948242 23.58098633 6.16838867 23.49731445 6.98120117 C23.20455827 9.16422256 22.76026402 11.21789437 22.1809082 13.34057617 C21.29568481 13.3781604 21.29568481 13.3781604 20.39257812 13.41650391 C17.71764007 13.53257669 15.0430444 13.65525189 12.3684082 13.77807617 C10.97525391 13.83705078 10.97525391 13.83705078 9.55395508 13.8972168 C8.21494141 13.96005859 8.21494141 13.96005859 6.84887695 14.02416992 C5.61560669 14.07915649 5.61560669 14.07915649 4.35742188 14.13525391 C2.00185643 14.27485389 2.00185643 14.27485389 -0.8190918 15.34057617 C-0.8190918 14.35057617 -0.8190918 13.36057617 -0.8190918 12.34057617 C1.4774452 11.19230767 2.76403988 11.22496442 5.3137207 11.24291992 C6.11938477 11.24614258 6.92504883 11.24936523 7.75512695 11.25268555 C8.59688477 11.26106445 9.43864258 11.26944336 10.3059082 11.27807617 C11.58014648 11.28484375 11.58014648 11.28484375 12.88012695 11.29174805 C14.98041729 11.30354743 17.08067151 11.32148311 19.1809082 11.34057617 C19.1809082 10.68057617 19.1809082 10.02057617 19.1809082 9.34057617 C19.8409082 9.34057617 20.5009082 9.34057617 21.1809082 9.34057617 C21.1809082 7.03057617 21.1809082 4.72057617 21.1809082 2.34057617 C7.8159082 2.83557617 7.8159082 2.83557617 -5.8190918 3.34057617 C-2.8190918 0.34057617 -2.8190918 0.34057617 0 0 Z " fill="#BA5752" transform="translate(321.819091796875,216.659423828125)"/>
<path d="M0 0 C-2.75078884 0.91692961 -4.35948913 1.10886083 -7.1875 1.0625 C-9.0746875 1.0315625 -9.0746875 1.0315625 -11 1 C-11 1.66 -11 2.32 -11 3 C-10.01 3.33 -9.02 3.66 -8 4 C-8.99 4.495 -8.99 4.495 -10 5 C-10.27585938 5.66515625 -10.55171875 6.3303125 -10.8359375 7.015625 C-12 9 -12 9 -14.1640625 9.609375 C-14.97617188 9.65578125 -15.78828125 9.7021875 -16.625 9.75 C-17.44226563 9.80671875 -18.25953125 9.8634375 -19.1015625 9.921875 C-19.72804687 9.94765625 -20.35453125 9.9734375 -21 10 C-22 7 -23 4 -24 1 C-21.75797926 -1.24202074 -16.71454558 -0.47420213 -13.6875 -0.625 C-12.38522461 -0.70234375 -12.38522461 -0.70234375 -11.05664062 -0.78125 C-10.21681641 -0.82507813 -9.37699219 -0.86890625 -8.51171875 -0.9140625 C-7.35869263 -0.9752124 -7.35869263 -0.9752124 -6.18237305 -1.03759766 C-3.96655204 -0.99942376 -2.11969534 -0.6235284 0 0 Z M-21 2 C-21 2.66 -21 3.32 -21 4 C-20.34 3.67 -19.68 3.34 -19 3 C-19.66 2.67 -20.32 2.34 -21 2 Z " fill="#B8211A" transform="translate(161,258)"/>
<path d="M0 0 C0 0.99 0 1.98 0 3 C0.66 3 1.32 3 2 3 C3.81607263 5.42143017 5.02818243 7.04179744 4.9375 10.125 C3.73851606 12.52296787 2.2284402 13.56229665 0 15 C-0.66 14.67 -1.32 14.34 -2 14 C-1.79375 13.401875 -1.5875 12.80375 -1.375 12.1875 C-0.69328085 9.71549154 -0.69328085 9.71549154 -3 7 C-2.67 6.34 -2.34 5.68 -2 5 C-5.93673644 6.31224548 -8.22719294 7.91910327 -11 11 C-11.66 10.34 -12.32 9.68 -13 9 C-12.01 8.01 -11.02 7.02 -10 6 C-10.99 5.67 -11.98 5.34 -13 5 C-11.40377344 3.96679519 -9.79770894 2.94877571 -8.1875 1.9375 C-7.29417969 1.36902344 -6.40085938 0.80054688 -5.48046875 0.21484375 C-3 -1 -3 -1 0 0 Z " fill="#B4251F" transform="translate(185,245)"/>
<path d="M0 0 C0.6875 1.8125 0.6875 1.8125 1 4 C0.54625 4.433125 0.0925 4.86625 -0.375 5.3125 C-2.8097755 7.84092071 -2.56002113 10.6058773 -3 14 C-3.99 14.495 -3.99 14.495 -5 15 C-4.67 15.66 -4.34 16.32 -4 17 C-3.67 17 -3.34 17 -3 17 C-2.79897531 22.9302285 -3.33265559 26.66531117 -6 32 C-8.52488893 29.47511107 -8.99584927 28.03943192 -9.375 24.4375 C-9.00346325 15.76292457 -6.28830928 6.28830928 0 0 Z " fill="#B92018" transform="translate(255,224)"/>
<path d="M0 0 C1.95825873 -0.02694851 3.91662226 -0.04637218 5.875 -0.0625 C6.96554688 -0.07410156 8.05609375 -0.08570313 9.1796875 -0.09765625 C12 0 12 0 14 1 C13.25339288 6.72398793 12.17122859 12.34853777 11 18 C11.69480469 17.67257813 12.38960937 17.34515625 13.10546875 17.0078125 C16.36368828 15.87337169 18.87449502 15.79943945 22.3125 15.875 C23.38113281 15.89304688 24.44976562 15.91109375 25.55078125 15.9296875 C26.35902344 15.95289063 27.16726562 15.97609375 28 16 C28.33 16.66 28.66 17.32 29 18 C28.10796875 18.06058594 27.2159375 18.12117188 26.296875 18.18359375 C24.54117188 18.30927734 24.54117188 18.30927734 22.75 18.4375 C21.58984375 18.51871094 20.4296875 18.59992188 19.234375 18.68359375 C16.13316333 18.90182247 16.13316333 18.90182247 13.71875 19.59375 C11.28765528 20.16837239 10.07191867 19.25795062 8 18 C7.50059192 11.88225104 8.75099398 8.97504047 12 4 C9.47524538 2.73762269 7.68799534 2.90143596 4.875 2.9375 C3.96492187 2.94652344 3.05484375 2.95554688 2.1171875 2.96484375 C1.06917969 2.98224609 1.06917969 2.98224609 0 3 C0 2.01 0 1.02 0 0 Z " fill="#BF5351" transform="translate(210,201)"/>
<path d="M0 0 C0.66 0.33 1.32 0.66 2 1 C1.58621168 7.51716611 0.5201023 13.71047171 -0.9375 20.0625 C-1.10733398 20.8248999 -1.27716797 21.5872998 -1.45214844 22.37280273 C-1.9009608 24.26572231 -2.44311482 26.13601074 -3 28 C-6.06533164 29.53266582 -9.26754272 29.10276471 -12.625 29.0625 C-13.33140625 29.05798828 -14.0378125 29.05347656 -14.765625 29.04882812 C-16.51045275 29.03703875 -18.255237 29.01910324 -20 29 C-19.67 27.68 -19.34 26.36 -19 25 C-19 25.66 -19 26.32 -19 27 C-14.38 27 -9.76 27 -5 27 C-4.896875 25.783125 -4.79375 24.56625 -4.6875 23.3125 C-4.11840847 18.10819921 -2.94665723 13.09916092 -1.71875 8.015625 C-1.08391452 5.35207614 -0.51776194 2.68837931 0 0 Z " fill="#B65251" transform="translate(244,234)"/>
<path d="M0 0 C2.55148488 1.15193621 5.18559683 1.99063131 7.8515625 2.8359375 C7.8515625 3.1659375 7.8515625 3.4959375 7.8515625 3.8359375 C-1.10448183 6.30050007 -9.95021245 6.0280118 -19.1484375 5.8359375 C-19.1484375 5.5059375 -19.1484375 5.1759375 -19.1484375 4.8359375 C-18.52195313 4.73796875 -17.89546875 4.64 -17.25 4.5390625 C-16.02410156 4.31476563 -16.02410156 4.31476563 -14.7734375 4.0859375 C-13.96132812 3.94671875 -13.14921875 3.8075 -12.3125 3.6640625 C-9.53164341 2.59990799 -9.33994691 1.46761916 -8.1484375 -1.1640625 C-4.53204551 -2.3695265 -3.33862732 -1.5485548 0 0 Z " fill="#C0423D" transform="translate(159.1484375,263.1640625)"/>
<path d="M0 0 C0.33 0.99 0.66 1.98 1 3 C0.01 3.66 -0.98 4.32 -2 5 C-2.72382467 7.05925139 -2.72382467 7.05925139 -3 9 C-3.99 8.67 -4.98 8.34 -6 8 C-7.33106622 7.65772583 -8.66400079 7.32248257 -10 7 C-10 6.34 -10 5.68 -10 5 C-10.99 5.33 -11.98 5.66 -13 6 C-13 5.01 -13 4.02 -13 3 C-12.34 3 -11.68 3 -11 3 C-11 2.34 -11 1.68 -11 1 C-7.2297564 -1.56376565 -4.32597804 -0.83191885 0 0 Z " fill="#C4221B" transform="translate(233,220)"/>
<path d="M0 0 C10.23 0 20.46 0 31 0 C31 0.33 31 0.66 31 1 C21.1 1 11.2 1 1 1 C1.33 1.99 1.66 2.98 2 4 C5.10423388 5.21217585 8.33822455 5.19344453 11.640625 5.31640625 C12.71054687 5.35830078 13.78046875 5.40019531 14.8828125 5.44335938 C15.99398438 5.48267578 17.10515625 5.52199219 18.25 5.5625 C19.37664062 5.60568359 20.50328125 5.64886719 21.6640625 5.69335938 C24.44258954 5.79932015 27.22120391 5.90139142 30 6 C29.67 6.66 29.34 7.32 29 8 C25.06221489 7.8612922 21.12485777 7.71281508 17.1875 7.5625 C16.06794922 7.52318359 14.94839844 7.48386719 13.79492188 7.44335938 C12.72177734 7.40146484 11.64863281 7.35957031 10.54296875 7.31640625 C9.55321045 7.27974854 8.56345215 7.24309082 7.54370117 7.20532227 C5 7 5 7 2 6 C1.67 6.66 1.34 7.32 1 8 C0 6 0 6 0 0 Z " fill="#CC7472" transform="translate(263,245)"/>
<path d="M0 0 C2.57714651 3.78992134 1.72646474 6.64629176 1 11 C0.11477661 11.03758423 0.11477661 11.03758423 -0.78833008 11.07592773 C-3.46326814 11.19200052 -6.1378638 11.31467572 -8.8125 11.4375 C-10.2056543 11.49647461 -10.2056543 11.49647461 -11.62695312 11.55664062 C-12.9659668 11.61948242 -12.9659668 11.61948242 -14.33203125 11.68359375 C-15.15421143 11.72025146 -15.9763916 11.75690918 -16.82348633 11.79467773 C-19.17905178 11.93427772 -19.17905178 11.93427772 -22 13 C-22 12.01 -22 11.02 -22 10 C-19.703463 8.8517315 -18.41686833 8.88438825 -15.8671875 8.90234375 C-15.06152344 8.90556641 -14.25585938 8.90878906 -13.42578125 8.91210938 C-12.58402344 8.92048828 -11.74226563 8.92886719 -10.875 8.9375 C-10.02550781 8.94201172 -9.17601562 8.94652344 -8.30078125 8.95117188 C-6.20049091 8.96297126 -4.1002367 8.98090694 -2 9 C-2 8.34 -2 7.68 -2 7 C-1.34 7 -0.68 7 0 7 C0 4.69 0 2.38 0 0 Z " fill="#B6312D" transform="translate(343,219)"/>
<path d="M0 0 C0.33 0 0.66 0 1 0 C1.66 2.64 2.32 5.28 3 8 C9.93 8 16.86 8 24 8 C24.33 8.99 24.66 9.98 25 11 C24.01 12.485 24.01 12.485 23 14 C23 12.68 23 11.36 23 10 C22.11477661 10.00785522 22.11477661 10.00785522 21.21166992 10.01586914 C18.53695745 10.03666047 15.86226199 10.04966701 13.1875 10.0625 C12.25873047 10.07087891 11.32996094 10.07925781 10.37304688 10.08789062 C9.48037109 10.09111328 8.58769531 10.09433594 7.66796875 10.09765625 C6.84578857 10.10289307 6.0236084 10.10812988 5.17651367 10.11352539 C3 10 3 10 0 9 C0 6.03 0 3.06 0 0 Z " fill="#C8625F" transform="translate(315,242)"/>
<path d="M0 0 C3.34249629 0.59687434 5.46436342 1.73603877 8 4 C8 4.66 8 5.32 8 6 C6.46875 7.2890625 6.46875 7.2890625 4.5 8.625 C3.8503125 9.07101563 3.200625 9.51703125 2.53125 9.9765625 C1.77328125 10.48316406 1.77328125 10.48316406 1 11 C1 9.68 1 8.36 1 7 C0.34 7 -0.32 7 -1 7 C-1.33 6.34 -1.66 5.68 -2 5 C-3.32 5.33 -4.64 5.66 -6 6 C-4.71034824 4.62437146 -3.37310707 3.29233607 -2 2 C-1.34 2 -0.68 2 0 2 C0 1.34 0 0.68 0 0 Z " fill="#5B585A" transform="translate(205,190)"/>
<path d="M0 0 C0.82638376 2.89234315 1 4.88742431 1 8 C-3.455 8.495 -3.455 8.495 -8 9 C-8 5 -8 5 -7 2 C-4 0 -4 0 0 0 Z " fill="#C22018" transform="translate(183,250)"/>
<path d="M0 0 C1.83982418 3.67964835 -0.55592504 8.56718851 -1.6171875 12.43945312 C-2.88251591 17.38376721 -3.06061901 20.99520407 -2 26 C-3.32 26.33 -4.64 26.66 -6 27 C-6.20637831 22.15010981 -5.65434355 18.06373124 -4.51171875 13.35546875 C-3.69509213 9.5964928 -3.36446479 5.8268803 -3 2 C-3.99 1.67 -4.98 1.34 -6 1 C-4.02 0.67 -2.04 0.34 0 0 Z " fill="#B54A43" transform="translate(370,207)"/>
<path d="M0 0 C0.66 0.33 1.32 0.66 2 1 C2 1.66 2 2.32 2 3 C1.34 3 0.68 3 0 3 C-0.33 3.99 -0.66 4.98 -1 6 C-1.99 5.67 -2.98 5.34 -4 5 C-4 5.99 -4 6.98 -4 8 C-4.66 8 -5.32 8 -6 8 C-6 7.34 -6 6.68 -6 6 C-6.99 6 -7.98 6 -9 6 C-9 7.65 -9 9.3 -9 11 C-9.33 11 -9.66 11 -10 11 C-10 8.36 -10 5.72 -10 3 C-9.34 3 -8.68 3 -8 3 C-8 2.34 -8 1.68 -8 1 C-5.26094655 -0.36952673 -3.02912668 -0.12621361 0 0 Z " fill="#3C3C39" transform="translate(159,217)"/>
<path d="M0 0 C13.365 0.495 13.365 0.495 27 1 C27 1.33 27 1.66 27 2 C25.83082031 2.06058594 24.66164063 2.12117187 23.45703125 2.18359375 C21.90884386 2.26804034 20.36066732 2.35268625 18.8125 2.4375 C18.04357422 2.47681641 17.27464844 2.51613281 16.48242188 2.55664062 C12.56748925 2.77507034 8.82879312 3.08692108 5 4 C5 4.66 5 5.32 5 6 C3.35 6.33 1.7 6.66 0 7 C-1 5 -1 5 0 0 Z " fill="#B3231D" transform="translate(265,251)"/>
<path d="M0 0 C0.79075928 0.00523682 1.58151855 0.01047363 2.39624023 0.01586914 C3.67724609 0.02070313 3.67724609 0.02070313 4.98413086 0.02563477 C5.88196289 0.03401367 6.77979492 0.04239258 7.70483398 0.05102539 C8.6065332 0.05553711 9.50823242 0.06004883 10.43725586 0.06469727 C12.67234712 0.07652315 14.90730835 0.09300319 17.14233398 0.11352539 C16.81233398 1.10352539 16.48233398 2.09352539 16.14233398 3.11352539 C10.53233398 3.11352539 4.92233398 3.11352539 -0.85766602 3.11352539 C-1.18766602 4.10352539 -1.51766602 5.09352539 -1.85766602 6.11352539 C-5.42016602 7.30102539 -5.42016602 7.30102539 -8.85766602 8.11352539 C-7.87900264 6.96726217 -6.89972014 5.82152751 -5.92016602 4.67602539 C-5.37489258 4.03793945 -4.82961914 3.39985352 -4.26782227 2.74243164 C-1.9994602 0.12219069 -1.9994602 0.12219069 0 0 Z " fill="#B4524F" transform="translate(381.857666015625,216.886474609375)"/>
<path d="M0 0 C3.63 2.31 7.26 4.62 11 7 C10.01 7.495 10.01 7.495 9 8 C8.67 8.66 8.34 9.32 8 10 C6.35353315 11.68662458 4.68816933 13.35511706 3 15 C-0.875 13.25 -0.875 13.25 -2 11 C-0.35 11 1.3 11 3 11 C2.835 10.38125 2.67 9.7625 2.5 9.125 C2 7 2 7 2 5 C1.34 3.35 0.68 1.7 0 0 Z " fill="#C14944" transform="translate(123,248)"/>
<path d="M0 0 C0.66 0.99 1.32 1.98 2 3 C1.67 3.99 1.34 4.98 1 6 C1.66 6 2.32 6 3 6 C3 5.34 3 4.68 3 4 C3.66 4 4.32 4 5 4 C5 3.34 5 2.68 5 2 C6.32 2.33 7.64 2.66 9 3 C6.42215154 5.64752004 4.08351902 7.94432065 1 10 C-2.6875 9.625 -2.6875 9.625 -6 9 C-2.25 2.25 -2.25 2.25 0 0 Z " fill="#C54A45" transform="translate(128,201)"/>
<path d="M0 0 C0.33 0.99 0.66 1.98 1 3 C1.66 3 2.32 3 3 3 C3.25 5.3125 3.25 5.3125 3 8 C1 9.8125 1 9.8125 -1 11 C-1.66 10.34 -2.32 9.68 -3 9 C-3.66 8.67 -4.32 8.34 -5 8 C-5.6875 6.0625 -5.6875 6.0625 -6 4 C-4.60804085 1.2160817 -2.84424221 1.02101003 0 0 Z " fill="#353634" transform="translate(203,194)"/>
<path d="M0 0 C1.98 0.66 3.96 1.32 6 2 C5.67 2.99 5.34 3.98 5 5 C4.01 5 3.02 5 2 5 C2.33 5.99 2.66 6.98 3 8 C2.34 8 1.68 8 1 8 C0.87625 8.7425 0.7525 9.485 0.625 10.25 C0.04513299 12.80141485 -0.73708739 14.7267573 -2 17 C-3.44715727 13.12813552 -2.5441918 10.1767672 -1.5625 6.25 C-1.27503906 5.07953125 -0.98757813 3.9090625 -0.69140625 2.703125 C-0.46324219 1.81109375 -0.23507812 0.9190625 0 0 Z " fill="#BB3B36" transform="translate(346,237)"/>
<path d="M0 0 C1.48831242 0.00667405 2.97660807 0.01863442 4.46484375 0.03515625 C5.22345703 0.03966797 5.98207031 0.04417969 6.76367188 0.04882812 C8.64326246 0.06064945 10.52281274 0.07858547 12.40234375 0.09765625 C12.40234375 1.74765625 12.40234375 3.39765625 12.40234375 5.09765625 C12.07234375 3.77765625 11.74234375 2.45765625 11.40234375 1.09765625 C5.95734375 1.59265625 5.95734375 1.59265625 0.40234375 2.09765625 C-0.25765625 3.74765625 -0.91765625 5.39765625 -1.59765625 7.09765625 C-2.25765625 7.09765625 -2.91765625 7.09765625 -3.59765625 7.09765625 C-3.59765625 8.08765625 -3.59765625 9.07765625 -3.59765625 10.09765625 C-4.25765625 10.09765625 -4.91765625 10.09765625 -5.59765625 10.09765625 C-5.45716107 8.61797301 -5.31010799 7.13891109 -5.16015625 5.66015625 C-5.07894531 4.83644531 -4.99773437 4.01273437 -4.9140625 3.1640625 C-4.36660886 -0.41128285 -3.83537504 0.10410899 0 0 Z " fill="#787775" transform="translate(157.59765625,284.90234375)"/>
<path d="M0 0 C0.99 0 1.98 0 3 0 C3.92952019 2.55618052 4.31328665 4.27726942 3.2109375 6.8203125 C2.18965879 8.57632409 1.09686409 10.29018244 0 12 C-0.33 12.66 -0.66 13.32 -1 14 C-1.66 14 -2.32 14 -3 14 C-2.69147815 12.041036 -2.3780582 10.08284287 -2.0625 8.125 C-1.88847656 7.03445313 -1.71445312 5.94390625 -1.53515625 4.8203125 C-1 2 -1 2 0 0 Z " fill="#413F40" transform="translate(391,272)"/>
<path d="M0 0 C0 1.32 0 2.64 0 4 C0.66 4.33 1.32 4.66 2 5 C1.34 6.32 0.68 7.64 0 9 C-2.64 8.34 -5.28 7.68 -8 7 C-3.53191489 0 -3.53191489 0 0 0 Z " fill="#BB211A" transform="translate(134,256)"/>
<path d="M0 0 C0.33 0.66 0.66 1.32 1 2 C0.01 3.485 0.01 3.485 -1 5 C-1.66 5 -2.32 5 -3 5 C-3 5.66 -3 6.32 -3 7 C-4.75 8.4375 -4.75 8.4375 -7 10 C-7.66 10.5775 -8.32 11.155 -9 11.75 C-11 13 -11 13 -13.125 12.578125 C-13.74375 12.38734375 -14.3625 12.1965625 -15 12 C-12.87706098 10.18503664 -10.75177875 8.37295406 -8.625 6.5625 C-8.02171875 6.04623047 -7.4184375 5.52996094 -6.796875 4.99804688 C-2.2265625 1.11328125 -2.2265625 1.11328125 0 0 Z " fill="#52514F" transform="translate(182,209)"/>
<path d="M0 0 C2 3 2 3 3 6 C2.34 6 1.68 6 1 6 C1 7.98 1 9.96 1 12 C2.65 11.67 4.3 11.34 6 11 C5.67 13.31 5.34 15.62 5 18 C2.67678559 17.07071424 1.27486025 16.40114739 -0.15625 14.3125 C-1.26925013 11.2620552 -0.97438153 8.96431005 -0.625 5.75 C-0.51414063 4.67234375 -0.40328125 3.5946875 -0.2890625 2.484375 C-0.19367188 1.66453125 -0.09828125 0.8446875 0 0 Z " fill="#575755" transform="translate(197,311)"/>
<path d="M0 0 C0 2.64 0 5.28 0 8 C-1.32 8 -2.64 8 -4 8 C-4 10.64 -4 13.28 -4 16 C-4.66 16 -5.32 16 -6 16 C-6.10841951 14.08458862 -6.18578079 12.16740227 -6.25 10.25 C-6.29640625 9.18265625 -6.3428125 8.1153125 -6.390625 7.015625 C-6 4 -6 4 -4.109375 1.609375 C-2 0 -2 0 0 0 Z " fill="#535351" transform="translate(286,298)"/>
<path d="M0 0 C0 0.66 0 1.32 0 2 C-0.763125 2.268125 -1.52625 2.53625 -2.3125 2.8125 C-5.00503534 3.73729829 -5.00503534 3.73729829 -6.15625 5.5625 C-9.14924806 7.89602391 -12.561635 7.31100108 -16.1875 7.1875 C-16.93708984 7.17396484 -17.68667969 7.16042969 -18.45898438 7.14648438 C-20.30629767 7.11118539 -22.15324066 7.05737917 -24 7 C-24 6.67 -24 6.34 -24 6 C-22.62328125 5.72736328 -22.62328125 5.72736328 -21.21875 5.44921875 C-14.7329683 4.12072355 -6.4236128 0 0 0 Z " fill="#C45E5D" transform="translate(172,251)"/>
<path d="M0 0 C5.94 0 11.88 0 18 0 C18 0.33 18 0.66 18 1 C12.94997778 2.03590199 8.12583611 2.10251672 3 2 C2.67 3.65 2.34 5.3 2 7 C1.34 7 0.68 7 0 7 C0 4.69 0 2.38 0 0 Z " fill="#A1312C" transform="translate(352,207)"/>
<path d="M0 0 C2.9156164 3.54039134 5.50127818 7.1626772 8 11 C7.38125 11.12375 6.7625 11.2475 6.125 11.375 C3.80879168 11.87197356 3.80879168 11.87197356 2 14 C1.87882813 13.31292969 1.75765625 12.62585938 1.6328125 11.91796875 C1.46523437 11.01691406 1.29765625 10.11585938 1.125 9.1875 C0.96257812 8.29417969 0.80015625 7.40085937 0.6328125 6.48046875 C0.08811551 3.77272154 0.08811551 3.77272154 -2 1 C-1.34 0.67 -0.68 0.34 0 0 Z " fill="#41413F" transform="translate(239,304)"/>
<path d="M0 0 C-0.33 1.65 -0.66 3.3 -1 5 C-0.01 5.33 0.98 5.66 2 6 C-0.97 6 -3.94 6 -7 6 C-7 4.02 -7 2.04 -7 0 C-3.98968256 -0.93423645 -3.13349732 -1.04449911 0 0 Z " fill="#21211F" transform="translate(311,323)"/>
<path d="M0 0 C2.56269497 1.04109483 4.02610343 2.02610343 6 4 C3 6 3 6 0 6 C-0.33 6.99 -0.66 7.98 -1 9 C-2.65 9.33 -4.3 9.66 -6 10 C-6.33 9.34 -6.66 8.68 -7 8 C-5.02 7.01 -3.04 6.02 -1 5 C-1.33 3.68 -1.66 2.36 -2 1 C-1.34 0.67 -0.68 0.34 0 0 Z " fill="#434342" transform="translate(251,317)"/>
<path d="M0 0 C0.6875 1.8125 0.6875 1.8125 1 4 C0.54625 4.433125 0.0925 4.86625 -0.375 5.3125 C-2.83507974 7.86719819 -2.67649714 10.57086971 -3 14 C-4.32 14.33 -5.64 14.66 -7 15 C-6.57352731 9.31369743 -4.06314998 4.06314998 0 0 Z " fill="#C05554" transform="translate(255,224)"/>
<path d="M0 0 C0.99 0 1.98 0 3 0 C2.42978625 6.95660771 0.98697306 13.31427305 -1 20 C-2.44977894 17.65887549 -3.04314411 16.4203071 -2.7578125 13.640625 C-2.54898438 12.85171875 -2.34015625 12.0628125 -2.125 11.25 C-1.92132813 10.45078125 -1.71765625 9.6515625 -1.5078125 8.828125 C-1.34023437 8.22484375 -1.17265625 7.6215625 -1 7 C-0.34 7 0.32 7 1 7 C0.67 4.69 0.34 2.38 0 0 Z " fill="#BD605B" transform="translate(213,240)"/>
<path d="M0 0 C0.99 0 1.98 0 3 0 C2.67 1.65 2.34 3.3 2 5 C6.29 5 10.58 5 15 5 C15.33 4.34 15.66 3.68 16 3 C15.67 4.32 15.34 5.64 15 7 C13.04174127 7.02694851 11.08337774 7.04637218 9.125 7.0625 C8.03445313 7.07410156 6.94390625 7.08570313 5.8203125 7.09765625 C3 7 3 7 1 6 C0.375 2.9375 0.375 2.9375 0 0 Z " fill="#AF3431" transform="translate(265,230)"/>
<path d="M0 0 C0.66 0.33 1.32 0.66 2 1 C1.938125 1.78375 1.87625 2.5675 1.8125 3.375 C1.874375 4.24125 1.93625 5.1075 2 6 C2.99 6.66 3.98 7.32 5 8 C1.7 8 -1.6 8 -5 8 C-3.95206337 3.80825346 -3.08236365 2.78407039 0 0 Z " fill="#1F1F1E" transform="translate(333,321)"/>
<path d="M0 0 C2.0625 0.4375 2.0625 0.4375 4 1 C4 1.66 4 2.32 4 3 C4.66 3 5.32 3 6 3 C8.1519437 6.22791555 8.20086443 7.28400809 8 11 C7.773125 10.360625 7.54625 9.72125 7.3125 9.0625 C6.14749104 6.72806339 6.14749104 6.72806339 3.375 6.25 C2.59125 6.1675 1.8075 6.085 1 6 C1 5.34 1 4.68 1 4 C-0.98 3.34 -2.96 2.68 -5 2 C-4.360625 1.855625 -3.72125 1.71125 -3.0625 1.5625 C-1.02454854 1.18992819 -1.02454854 1.18992819 0 0 Z " fill="#CA5654" transform="translate(289,218)"/>
<path d="M0 0 C0 0.66 0 1.32 0 2 C-1.32 2.33 -2.64 2.66 -4 3 C-4.33 4.65 -4.66 6.3 -5 8 C-7.97 8 -10.94 8 -14 8 C-13.01 7.01 -12.02 6.02 -11 5 C-10.34 5 -9.68 5 -9 5 C-9 4.34 -9 3.68 -9 3 C-2.25 0 -2.25 0 0 0 Z " fill="#BF544F" transform="translate(154,183)"/>
<path d="M0 0 C5.28 0 10.56 0 16 0 C16 0.33 16 0.66 16 1 C15.03578125 0.99097656 14.0715625 0.98195313 13.078125 0.97265625 C6.13300075 0.77654968 6.13300075 0.77654968 0.1796875 3.625 C-1.04885516 5.74253253 -1.04885516 5.74253253 -2 9 C-2.33 9 -2.66 9 -3 9 C-3 6.69 -3 4.38 -3 2 C-2.34 2 -1.68 2 -1 2 C-0.67 1.34 -0.34 0.68 0 0 Z " fill="#6E6D6B" transform="translate(102,318)"/>
<path d="M0 0 C0.33 0.66 0.66 1.32 1 2 C2.1446875 1.505 2.1446875 1.505 3.3125 1 C6 0 6 0 9 0 C9 0.66 9 1.32 9 2 C7.0429132 2.67031719 5.08428887 3.33614683 3.125 4 C2.03445312 4.37125 0.94390625 4.7425 -0.1796875 5.125 C-3 6 -3 6 -5 6 C-5 5.01 -5 4.02 -5 3 C-3.68 3 -2.36 3 -1 3 C-0.67 2.01 -0.34 1.02 0 0 Z " fill="#BA514E" transform="translate(172,260)"/>
<path d="M0 0 C1.22589844 0.01353516 1.22589844 0.01353516 2.4765625 0.02734375 C3.41628906 0.04474609 3.41628906 0.04474609 4.375 0.0625 C4.375 0.3925 4.375 0.7225 4.375 1.0625 C2.065 1.0625 -0.245 1.0625 -2.625 1.0625 C-2.295 2.3825 -1.965 3.7025 -1.625 5.0625 C-3.605 5.7225 -5.585 6.3825 -7.625 7.0625 C-7.25 4.125 -7.25 4.125 -6.625 1.0625 C-4.21954362 -0.14022819 -2.67503047 -0.03821472 0 0 Z " fill="#31302F" transform="translate(117.625,272.9375)"/>
<path d="M0 0 C0.66 0.33 1.32 0.66 2 1 C1.67 3.64 1.34 6.28 1 9 C0.34 8.67 -0.32 8.34 -1 8 C-3.2072923 7.92907158 -5.41667452 7.91584975 -7.625 7.9375 C-9.40777344 7.95103516 -9.40777344 7.95103516 -11.2265625 7.96484375 C-12.59941406 7.98224609 -12.59941406 7.98224609 -14 8 C-14 7.67 -14 7.34 -14 7 C-12.4176994 6.66179834 -10.83410625 6.32964061 -9.25 6 C-8.36828125 5.814375 -7.4865625 5.62875 -6.578125 5.4375 C-4 5 -4 5 0 5 C0 3.35 0 1.7 0 0 Z " fill="#C13A3A" transform="translate(358,253)"/>
<path d="M0 0 C0.66 0 1.32 0 2 0 C1.97679688 1.00160156 1.95359375 2.00320312 1.9296875 3.03515625 C1.91091211 4.37759664 1.89271382 5.72004518 1.875 7.0625 C1.85179688 8.37347656 1.82859375 9.68445313 1.8046875 11.03515625 C2.00582478 15.11824299 2.72834538 18.14999053 4 22 C3.34 22 2.68 22 2 22 C-0.10209857 18.84685215 -0.2434761 18.13896919 -0.1953125 14.55078125 C-0.18886719 13.70322266 -0.18242188 12.85566406 -0.17578125 11.98242188 C-0.15902344 11.10134766 -0.14226562 10.22027344 -0.125 9.3125 C-0.11597656 8.41982422 -0.10695313 7.52714844 -0.09765625 6.60742188 C-0.07409748 4.40467686 -0.04120329 2.20247412 0 0 Z " fill="#BC5D5C" transform="translate(119,226)"/>
<path d="M0 0 C0.33 0 0.66 0 1 0 C1.13277344 1.20398438 1.26554687 2.40796875 1.40234375 3.6484375 C1.5805302 5.22398085 1.7589265 6.79950047 1.9375 8.375 C2.02451172 9.1690625 2.11152344 9.963125 2.20117188 10.78125 C2.6038935 15.02255001 2.6038935 15.02255001 4 19 C3.34 19.99 2.68 20.98 2 22 C0.00881759 17.02988327 -0.24845695 12.87666865 -0.125 7.625 C-0.11597656 6.88894531 -0.10695313 6.15289062 -0.09765625 5.39453125 C-0.07430144 3.5962112 -0.03843836 1.79806089 0 0 Z " fill="#CF8681" transform="translate(113,231)"/>
<path d="M0 0 C1.65 0.33 3.3 0.66 5 1 C5 1.66 5 2.32 5 3 C5.99 3.33 6.98 3.66 8 4 C1.73 4 -4.54 4 -11 4 C-11 3.67 -11 3.34 -11 3 C-7.37 3 -3.74 3 0 3 C0 2.01 0 1.02 0 0 Z " fill="#A4201B" transform="translate(384,258)"/>
<path d="M0 0 C0.33 0.66 0.66 1.32 1 2 C2.64363134 2.72159424 4.31050386 3.39351421 6 4 C5.01 4.495 5.01 4.495 4 5 C4 6.65 4 8.3 4 10 C1.4375 7.8125 1.4375 7.8125 -1 5 C-0.8125 2.1875 -0.8125 2.1875 0 0 Z " fill="#B93C36" transform="translate(117,249)"/>
<path d="M0 0 C1.57156655 3.1431331 0.11705576 5.365464 -0.9375 8.625 C-1.31777344 9.81351563 -1.69804687 11.00203125 -2.08984375 12.2265625 C-2.39019531 13.14179688 -2.69054687 14.05703125 -3 15 C-3.66 15 -4.32 15 -5 15 C-5.33 15.66 -5.66 16.32 -6 17 C-5.00481422 10.49200879 -3.60861828 5.5332147 0 0 Z " fill="#C05F5D" transform="translate(304,226)"/>
<path d="M0 0 C5.875 2.75 5.875 2.75 7 5 C4.29120665 6.35439668 1.99066732 6.06501451 -1 6 C-1.042721 4.33388095 -1.04063832 2.66617115 -1 1 C-0.67 0.67 -0.34 0.34 0 0 Z " fill="#3D3D3B" transform="translate(264,272)"/>
<path d="M0 0 C0.66 0.33 1.32 0.66 2 1 C2 4.63 2 8.26 2 12 C1.67 12 1.34 12 1 12 C0.67 10.02 0.34 8.04 0 6 C-0.99 7.32 -1.98 8.64 -3 10 C-3 7.36 -3 4.72 -3 2 C-2.34 2 -1.68 2 -1 2 C-0.67 1.34 -0.34 0.68 0 0 Z " fill="#AD1E1B" transform="translate(117,229)"/>
<path d="M0 0 C0.598125 0.20625 1.19625 0.4125 1.8125 0.625 C1.8125 1.615 1.8125 2.605 1.8125 3.625 C0.8225 3.625 -0.1675 3.625 -1.1875 3.625 C-1.1875 4.285 -1.1875 4.945 -1.1875 5.625 C-1.8475 5.625 -2.5075 5.625 -3.1875 5.625 C-3.1875 6.285 -3.1875 6.945 -3.1875 7.625 C-3.8475 7.625 -4.5075 7.625 -5.1875 7.625 C-5.375 4.75 -5.375 4.75 -5.1875 1.625 C-2.1875 -0.375 -2.1875 -0.375 0 0 Z " fill="#BD271C" transform="translate(134.1875,199.375)"/>
<path d="M0 0 C2.97851562 0.390625 2.97851562 0.390625 5.95703125 0.78125 C8.15471706 1.053233 8.15471706 1.053233 11 1 C13.1875 2.5 13.1875 2.5 15 4 C11.50448721 5.21405922 9.30906703 4.777272 5.8125 3.6875 C4.93207031 3.42324219 4.05164063 3.15898437 3.14453125 2.88671875 C1 2 1 2 0 0 Z " fill="#BD4D4B" transform="translate(126,263)"/>
<path d="M0 0 C2.55227651 3.07150755 3.88776704 5.98525624 5.1875 9.75 C5.53167969 10.73484375 5.87585938 11.7196875 6.23046875 12.734375 C6.61138672 13.85585938 6.61138672 13.85585938 7 15 C6.34 15 5.68 15 5 15 C4.18501438 13.3970947 3.37310073 11.79262722 2.5625 10.1875 C2.11003906 9.29417969 1.65757812 8.40085938 1.19140625 7.48046875 C0 5 0 5 -1 2 C-0.67 1.34 -0.34 0.68 0 0 Z " fill="#BF6362" transform="translate(384,246)"/>
<path d="M0 0 C0.33 1.32 0.66 2.64 1 4 C1.99 4.33 2.98 4.66 4 5 C3.34 6.65 2.68 8.3 2 10 C2.66 10 3.32 10 4 10 C4 9.34 4 8.68 4 8 C4.66 8 5.32 8 6 8 C6.33 9.65 6.66 11.3 7 13 C6.67 12.34 6.34 11.68 6 11 C4.35 11 2.7 11 1 11 C0.67 7.37 0.34 3.74 0 0 Z " fill="#63605E" transform="translate(224,297)"/>
<path d="M0 0 C0 0.99 0 1.98 0 3 C0.66 3.33 1.32 3.66 2 4 C1.01 4 0.02 4 -1 4 C-1 4.66 -1 5.32 -1 6 C-2.98 6 -4.96 6 -7 6 C-7 4 -7 4 -5.1875 1.875 C-3 0 -3 0 0 0 Z " fill="#C5201B" transform="translate(385,254)"/>
<path d="M0 0 C2.60704898 2.60704898 2.23905333 4.47338241 2.265625 8.02734375 C2 10 2 10 0 13 C-1.57170996 9.85658007 -1.23175783 6.44228549 -1 3 C-0.67 2.01 -0.34 1.02 0 0 Z " fill="#C76563" transform="translate(247,241)"/>
<path d="M0 0 C0.33 0.66 0.66 1.32 1 2 C0.11477661 2.03758423 0.11477661 2.03758423 -0.78833008 2.07592773 C-3.46326814 2.19200052 -6.1378638 2.31467572 -8.8125 2.4375 C-10.2056543 2.49647461 -10.2056543 2.49647461 -11.62695312 2.55664062 C-12.9659668 2.61948242 -12.9659668 2.61948242 -14.33203125 2.68359375 C-15.56530151 2.73858032 -15.56530151 2.73858032 -16.82348633 2.79467773 C-19.17905178 2.93427772 -19.17905178 2.93427772 -22 4 C-22 3.01 -22 2.02 -22 1 C-14.74 0.67 -7.48 0.34 0 0 Z " fill="#B75453" transform="translate(343,228)"/>
<path d="M0 0 C1.65 0 3.3 0 5 0 C4.67 0.99 4.34 1.98 4 3 C3.34 3 2.68 3 2 3 C2 3.66 2 4.32 2 5 C1.01 5 0.02 5 -1 5 C-1 6.65 -1 8.3 -1 10 C-1.33 10 -1.66 10 -2 10 C-2 7.36 -2 4.72 -2 2 C-1.34 2 -0.68 2 0 2 C0 1.34 0 0.68 0 0 Z " fill="#42413F" transform="translate(151,218)"/>
<path d="M0 0 C3.465 1.485 3.465 1.485 7 3 C7 3.66 7 4.32 7 5 C4 7 4 7 1 7 C0.67 4.69 0.34 2.38 0 0 Z " fill="#4C4B49" transform="translate(206,191)"/>
<path d="M0 0 C6.93 0.495 6.93 0.495 14 1 C13.67 1.99 13.34 2.98 13 4 C11.01926635 3.719172 9.04041552 3.42503386 7.0625 3.125 C5.40927734 2.88136719 5.40927734 2.88136719 3.72265625 2.6328125 C2.82417969 2.42398438 1.92570313 2.21515625 1 2 C0.67 1.34 0.34 0.68 0 0 Z " fill="#BC514D" transform="translate(168,192)"/>
<path d="M0 0 C0.33 0 0.66 0 1 0 C1 4.62 1 9.24 1 14 C0.01 14.495 0.01 14.495 -1 15 C-2.4002792 9.53891111 -1.42705634 5.30723432 0 0 Z " fill="#C04D49" transform="translate(202,221)"/>
<path d="M0 0 C0 0.66 0 1.32 0 2 C-3.11771927 3.60339848 -4.39011689 4.18974141 -7.8125 3.125 C-8.534375 2.75375 -9.25625 2.3825 -10 2 C-10.33 2.99 -10.66 3.98 -11 5 C-11 3.68 -11 2.36 -11 1 C-7.26562152 0.12132271 -3.83225427 -0.08912219 0 0 Z " fill="#616261" transform="translate(251,269)"/>
<path d="M0 0 C1.19126781 3.57380342 0.7349445 5.50883302 0.0625 9.1875 C-0.13214844 10.27417969 -0.32679688 11.36085938 -0.52734375 12.48046875 C-0.68332031 13.31191406 -0.83929688 14.14335937 -1 15 C-1.99 14.67 -2.98 14.34 -4 14 C-4 12.02 -4 10.04 -4 8 C-3.34 7.67 -2.68 7.34 -2 7 C-1.26924352 4.6859378 -0.59861742 2.35171131 0 0 Z " fill="#5C5B5A" transform="translate(215,302)"/>
<path d="M0 0 C3.3 0 6.6 0 10 0 C6.09618178 3.90381822 4.33820964 3.56244183 -1 4 C-0.67 2.68 -0.34 1.36 0 0 Z " fill="#B92926" transform="translate(174,258)"/>
<path d="M0 0 C0.2475 0.61875 0.495 1.2375 0.75 1.875 C2.22246063 4.37818306 3.41028837 4.83045281 6 6 C6.33 6.66 6.66 7.32 7 8 C2.59885603 7.49701212 0.28804981 5.91227269 -3 3 C-2.67 2.34 -2.34 1.68 -2 1 C-1.34 1.33 -0.68 1.66 0 2 C0 1.34 0 0.68 0 0 Z " fill="#C86968" transform="translate(251,254)"/>
<path d="M0 0 C1.32 0 2.64 0 4 0 C3.01 3.3 2.02 6.6 1 10 C0.34 9.34 -0.32 8.68 -1 8 C-0.96712417 5.27130593 -0.43602229 2.7033382 0 0 Z " fill="#BD4745" transform="translate(316,232)"/>
<path d="M0 0 C-0.639375 0.12375 -1.27875 0.2475 -1.9375 0.375 C-2.618125 0.58125 -3.29875 0.7875 -4 1 C-4.33 1.66 -4.66 2.32 -5 3 C-6.65 2.67 -8.3 2.34 -10 2 C-10 1.34 -10 0.68 -10 0 C-10.66 -0.33 -11.32 -0.66 -12 -1 C-3.42857143 -2.42857143 -3.42857143 -2.42857143 0 0 Z " fill="#C63631" transform="translate(243,220)"/>
<path d="M0 0 C0.66 0.33 1.32 0.66 2 1 C1.25 3.9375 1.25 3.9375 0 7 C-2.125 7.875 -2.125 7.875 -4 8 C-2.87548273 5.0280615 -1.77706209 2.66559313 0 0 Z " fill="#575653" transform="translate(88,313)"/>
<path d="M0 0 C0.763125 0.20625 1.52625 0.4125 2.3125 0.625 C-0.1625 4.09 -0.1625 4.09 -2.6875 7.625 C-3.6775 6.965 -4.6675 6.305 -5.6875 5.625 C-4.6975 4.635 -3.7075 3.645 -2.6875 2.625 C-3.6775 2.295 -4.6675 1.965 -5.6875 1.625 C-2.6875 -0.375 -2.6875 -0.375 0 0 Z " fill="#C7423D" transform="translate(177.6875,248.375)"/>
<path d="M0 0 C2.125 0.375 2.125 0.375 4 1 C4.33 2.32 4.66 3.64 5 5 C3.35 5.33 1.7 5.66 0 6 C-0.66 4.68 -1.32 3.36 -2 2 C-1.34 1.34 -0.68 0.68 0 0 Z " fill="#BD2016" transform="translate(363,233)"/>
<path d="M0 0 C1.01382963 3.6208201 1.49897691 7.27811418 2 11 C0.68 11.33 -0.64 11.66 -2 12 C-2.17835515 7.45194365 -1.99785435 4.1205746 0 0 Z " fill="#C26260" transform="translate(366,222)"/>
<path d="M0 0 C1.9375 0.3125 1.9375 0.3125 4 1 C4.33 1.99 4.66 2.98 5 4 C3.68 5.32 2.36 6.64 1 8 C0 7 0 7 -0.0625 3.4375 C-0.041875 2.303125 -0.02125 1.16875 0 0 Z " fill="#1B1B19" transform="translate(123,297)"/>
<path d="M0 0 C-3.1254959 2.64465038 -6.08788267 3.84414715 -10 5 C-9.625 3.0625 -9.625 3.0625 -9 1 C-6.04335481 -0.4783226 -3.25770263 -0.06032783 0 0 Z " fill="#C25C55" transform="translate(150,196)"/>
<path d="M0 0 C1.5625 1.25 1.5625 1.25 3 3 C2.9375 5 2.9375 5 2 7 C-0.0625 8.75 -0.0625 8.75 -2 10 C-2.66 9.67 -3.32 9.34 -4 9 C-3.67 8.34 -3.34 7.68 -3 7 C-2.01 7 -1.02 7 0 7 C0 4.69 0 2.38 0 0 Z " fill="#CC7978" transform="translate(187,250)"/>
<path d="M0 0 C-1.65 1.32 -3.3 2.64 -5 4 C-5.99 3.34 -6.98 2.68 -8 2 C-8 1.34 -8 0.68 -8 0 C-5.13822943 -1.43088528 -3.06624227 -0.59991697 0 0 Z " fill="#BF3C38" transform="translate(398,220)"/>
<path d="M0 0 C0.66 0 1.32 0 2 0 C1.33333333 4.66666667 0.66666667 9.33333333 0 14 C-0.33 14 -0.66 14 -1 14 C-1.0270043 12.54176788 -1.04639787 11.08339325 -1.0625 9.625 C-1.07410156 8.81289062 -1.08570313 8.00078125 -1.09765625 7.1640625 C-1 5 -1 5 0 3 C-0.66 2.67 -1.32 2.34 -2 2 C-1.34 2 -0.68 2 0 2 C0 1.34 0 0.68 0 0 Z " fill="#B74D4A" transform="translate(222,202)"/>
<path d="M0 0 C1.98 0 3.96 0 6 0 C5.67 2.31 5.34 4.62 5 7 C4.34 6.34 3.68 5.68 3 5 C3 4.01 3 3.02 3 2 C2.01 2 1.02 2 0 2 C0 1.34 0 0.68 0 0 Z " fill="#3E3E3C" transform="translate(218,319)"/>
<path d="M0 0 C0.66 0 1.32 0 2 0 C2.74926071 3.66305234 3.2380014 6.42355152 2 10 C0.5 8.6875 0.5 8.6875 -1 7 C-1 6.01 -1 5.02 -1 4 C-0.34 4 0.32 4 1 4 C0.67 2.68 0.34 1.36 0 0 Z " fill="#6A6865" transform="translate(232,313)"/>
<path d="M0 0 C0.99 0.33 1.98 0.66 3 1 C3.33 0.67 3.66 0.34 4 0 C4.99 0.66 5.98 1.32 7 2 C5 5 5 5 2.875 5.6875 C2.25625 5.790625 1.6375 5.89375 1 6 C0.67 4.02 0.34 2.04 0 0 Z " fill="#20201E" transform="translate(121,289)"/>
<path d="M0 0 C-0.99 0.495 -0.99 0.495 -2 1 C-2.33 1.99 -2.66 2.98 -3 4 C-4.9375 3.6875 -4.9375 3.6875 -7 3 C-7.33 2.01 -7.66 1.02 -8 0 C-5.13822943 -1.43088528 -3.06624227 -0.59991697 0 0 Z " fill="#BD3E38" transform="translate(270,219)"/>
<path d="M0 0 C1.32 0.33 2.64 0.66 4 1 C1.42215154 3.64752004 -0.91648098 5.94432065 -4 8 C-4 7.01 -4 6.02 -4 5 C-3.34 5 -2.68 5 -2 5 C-2 4.01 -2 3.02 -2 2 C-1.34 2 -0.68 2 0 2 C0 1.34 0 0.68 0 0 Z " fill="#C45D5A" transform="translate(133,203)"/>
<path d="M0 0 C0.33 0 0.66 0 1 0 C0.47462276 5.0302076 -0.10594786 10.01885239 -1 15 C-1.33 15 -1.66 15 -2 15 C-2.3690205 4.44191344 -2.3690205 4.44191344 0 0 Z " fill="#62615F" transform="translate(397,312)"/>
<path d="M0 0 C1.13732426 3.40401948 0.83989957 5.77456664 0.0625 9.25 C-0.13214844 10.14203125 -0.32679688 11.0340625 -0.52734375 11.953125 C-0.68332031 12.62859375 -0.83929688 13.3040625 -1 14 C-1.33 14 -1.66 14 -2 14 C-2.05410687 12.22950311 -2.09284119 10.45853151 -2.125 8.6875 C-2.14820313 7.70136719 -2.17140625 6.71523438 -2.1953125 5.69921875 C-2 3 -2 3 0 0 Z " fill="#656362" transform="translate(194,300)"/>
<path d="M0 0 C0.99 0.495 0.99 0.495 2 1 C1.01 1.495 1.01 1.495 0 2 C0 1.34 0 0.68 0 0 Z M-3 2 C-2.01 2 -1.02 2 0 2 C-0.33 3.98 -0.66 5.96 -1 8 C-1.99 8.33 -2.98 8.66 -4 9 C-4.04254356 7.00045254 -4.04080783 4.99958364 -4 3 C-3.67 2.67 -3.34 2.34 -3 2 Z " fill="#3A3A38" transform="translate(126,292)"/>
<path d="M0 0 C0.99 0.33 1.98 0.66 3 1 C3 1.99 3 2.98 3 4 C3.66 4 4.32 4 5 4 C4.67 4.66 4.34 5.32 4 6 C3.34 5.67 2.68 5.34 2 5 C2 4.34 2 3.68 2 3 C0.02 3.33 -1.96 3.66 -4 4 C-2.68 2.68 -1.36 1.36 0 0 Z " fill="#C26868" transform="translate(182,244)"/>
<path d="M0 0 C0.66 0 1.32 0 2 0 C2.95465783 2.16967689 3.14401212 3.56328793 2.3984375 5.82421875 C1.64129615 7.5684743 0.82390802 9.28627131 0 11 C-0.33 11 -0.66 11 -1 11 C-0.67 7.37 -0.34 3.74 0 0 Z " fill="#C7625D" transform="translate(122,215)"/>
<path d="M0 0 C1.125 1.75 1.125 1.75 2 4 C1.125 6.25 1.125 6.25 0 8 C-1.89213369 5.61426621 -3.02391783 3.92824652 -4 1 C-3.01 1.33 -2.02 1.66 -1 2 C-0.67 1.34 -0.34 0.68 0 0 Z " fill="#BB221D" transform="translate(140,193)"/>
<path d="M0 0 C0.99 0.33 1.98 0.66 3 1 C3.33 2.65 3.66 4.3 4 6 C1.5625 5.1875 1.5625 5.1875 -1 4 C-1.33 3.01 -1.66 2.02 -2 1 C-1.34 0.67 -0.68 0.34 0 0 Z " fill="#393835" transform="translate(151,323)"/>
<path d="M0 0 C1.65 0 3.3 0 5 0 C4.01 1.98 3.02 3.96 2 6 C1.34 6 0.68 6 0 6 C0 4.02 0 2.04 0 0 Z " fill="#1E1C1C" transform="translate(179,300)"/>
<path d="M0 0 C0.99 0 1.98 0 3 0 C4.85776765 3.13498292 5.20140476 5.37471432 5 9 C2.38952199 7.694761 2.31933577 6.64173426 1.375 3.9375 C1.11460937 3.20402344 0.85421875 2.47054687 0.5859375 1.71484375 C0.39257812 1.14894531 0.19921875 0.58304688 0 0 Z " fill="#BD5B54" transform="translate(364,245)"/>
<path d="M0 0 C0.33 0 0.66 0 1 0 C1 1.65 1 3.3 1 5 C-1.31 5.66 -3.62 6.32 -6 7 C-5.02433888 5.83040013 -4.044375 4.66438823 -3.0625 3.5 C-2.51722656 2.8503125 -1.97195313 2.200625 -1.41015625 1.53125 C-0.71212891 0.77328125 -0.71212891 0.77328125 0 0 Z " fill="#C66866" transform="translate(379,218)"/>
<path d="M0 0 C0.66 0.99 1.32 1.98 2 3 C1.34 3 0.68 3 0 3 C0.185625 4.11375 0.37125 5.2275 0.5625 6.375 C1 10 1 10 0 12 C-0.66 12 -1.32 12 -2 12 C-1.85904936 10.3745692 -1.71207913 8.74965949 -1.5625 7.125 C-1.48128906 6.22007812 -1.40007812 5.31515625 -1.31640625 4.3828125 C-1 2 -1 2 0 0 Z " fill="#C96C69" transform="translate(351,214)"/>
<path d="M0 0 C0.66 0 1.32 0 2 0 C2.33 0.99 2.66 1.98 3 3 C1.68 4.32 0.36 5.64 -1 7 C-1.33 6.34 -1.66 5.68 -2 5 C-1.0625 2.375 -1.0625 2.375 0 0 Z " fill="#1E1E1C" transform="translate(354,305)"/>
<path d="M0 0 C0 1.65 0 3.3 0 5 C-1.32 5.33 -2.64 5.66 -4 6 C-3.625 3.5625 -3.625 3.5625 -3 1 C-1 0 -1 0 0 0 Z " fill="#232321" transform="translate(214,304)"/>
<path d="M0 0 C1.32 0.99 2.64 1.98 4 3 C3.01 4.98 2.02 6.96 1 9 C0.34 9 -0.32 9 -1 9 C-0.67 6.03 -0.34 3.06 0 0 Z " fill="#4E4C4D" transform="translate(389,277)"/>
<path d="M0 0 C1.64350079 3.28700157 2.41321669 5.47930015 3 9 C1.68 9 0.36 9 -1 9 C-0.67 6.03 -0.34 3.06 0 0 Z " fill="#C45350" transform="translate(225,249)"/>
<path d="M0 0 C0.33 0 0.66 0 1 0 C1 1.65 1 3.3 1 5 C1.66 5 2.32 5 3 5 C2.34 6.32 1.68 7.64 1 9 C0.34 9 -0.32 9 -1 9 C-0.67 6.03 -0.34 3.06 0 0 Z " fill="#C45E5B" transform="translate(348,226)"/>
<path d="M0 0 C0.33 0.99 0.66 1.98 1 3 C1.66 3 2.32 3 3 3 C3 3.99 3 4.98 3 6 C1.68 6.33 0.36 6.66 -1 7 C-0.67 4.69 -0.34 2.38 0 0 Z " fill="#B6201F" transform="translate(219,217)"/>
<path d="M0 0 C0.33 0.99 0.66 1.98 1 3 C-0.25 4.5625 -0.25 4.5625 -2 6 C-4.1875 5.6875 -4.1875 5.6875 -6 5 C-4.02 3.35 -2.04 1.7 0 0 Z " fill="#5F5E5D" transform="translate(173,216)"/>
<path d="M0 0 C0.99 0.33 1.98 0.66 3 1 C2.01 1.495 2.01 1.495 1 2 C1 3.98 1 5.96 1 8 C0.34 7.67 -0.32 7.34 -1 7 C-1.04254356 5.00045254 -1.04080783 2.99958364 -1 1 C-0.67 0.67 -0.34 0.34 0 0 Z " fill="#B2241E" transform="translate(262,242)"/>
<path d="M0 0 C0.66 0.66 1.32 1.32 2 2 C0.33333333 3.66666667 -1.33333333 5.33333333 -3 7 C-4.125 3.25 -4.125 3.25 -3 1 C-2.01 0.67 -1.02 0.34 0 0 Z " fill="#C83833" transform="translate(366,237)"/>
<path d="M0 0 C2.125 0.375 2.125 0.375 4 1 C2.625 3.5 2.625 3.5 1 6 C0.34 6 -0.32 6 -1 6 C-1.625 4.125 -1.625 4.125 -2 2 C-1.34 1.34 -0.68 0.68 0 0 Z " fill="#474644" transform="translate(152,226)"/>
<path d="M0 0 C1.32 0.33 2.64 0.66 4 1 C1.03 3.475 1.03 3.475 -2 6 C-2 4.68 -2 3.36 -2 2 C-1.34 2 -0.68 2 0 2 C0 1.34 0 0.68 0 0 Z " fill="#545452" transform="translate(186,218)"/>
<path d="M0 0 C0.66 0.33 1.32 0.66 2 1 C0.35 2.65 -1.3 4.3 -3 6 C-3.33 5.01 -3.66 4.02 -4 3 C-3 1 -3 1 0 0 Z " fill="#262522" transform="translate(201,195)"/>
<path d="M0 0 C1.32 0.33 2.64 0.66 4 1 C4 2.32 4 3.64 4 5 C3.01 5.33 2.02 5.66 1 6 C0.67 4.02 0.34 2.04 0 0 Z " fill="#BE6162" transform="translate(196,184)"/>
</svg>
